<?xml version="1.0" encoding="UTF-8"?>
<svg id="Camada_2" data-name="Camada 2" xmlns="http://www.w3.org/2000/svg" viewBox="0 0 453.64 453.27">
  <defs>
    <style>
      .cls-1 {
        fill: #ffe7d2;
      }
    </style>
  </defs>
  <g id="Camada_1-2" data-name="Camada 1">
    <g id="YXb1Kw.tif">
      <g>
        <path class="cls-1" d="M246.42,0c6.68,1.55,13.6,1.87,20.36,3.07,93.14,16.6,167.45,91.02,183.67,184.27l2.93,20.51c-.58,12.18.79,25.06,0,37.15-6.57,100.66-87.97,187.61-186.6,204.78C101.61,478.53-37.1,325.22,8.94,163.63,33.84,76.21,115.74,6.34,207.5,0h38.92ZM105.57,124.06c-15.64,3.01-23.36,14.06-24.54,29.41-3.62,47,2.67,98.46,0,145.92.62,15.78,10.78,28.28,26.93,29.67h237.99c17.41-2.03,25.82-13.72,26.98-30.51,3.41-49.12-1.73-103.41-1.15-152.83-2.84-12.17-13.35-20.94-25.84-21.93l-240.38.26Z"/>
        <g>
          <path class="cls-1" d="M349.9,158.32v143.73c0,.39-2.03,3.24-2.65,3.54l-238.42.48c-1.74.62-4.82-2.95-4.82-4.02v-143.73l118.47,93.36,8.27.21,119.14-93.57Z"/>
          <polygon class="cls-1" points="326.9 146.82 226.65 226.36 127.01 146.82 326.9 146.82"/>
        </g>
      </g>
    </g>
  </g>
</svg>