<?xml version="1.0" encoding="UTF-8"?>
<svg id="Camada_2" data-name="Camada 2" xmlns="http://www.w3.org/2000/svg" viewBox="0 0 449.58 450.05">
  <defs>
    <style>
      .cls-1 {
        fill: #ffe7d2;
      }
    </style>
  </defs>
  <g id="Camada_1-2" data-name="Camada 1">
    <g id="VLJqU9.tif">
      <path class="cls-1" d="M449.58,209.06v32.61l-6.05,37.88c-19.72,85.02-89.48,151.54-174.23,170.49h-.91v-162.17h43.03l10.42-62.51h-66.13v-51.19c0-3.38,6.36-14.64,9.03-17.25,3.46-3.37,14.89-8.57,19.51-8.57h47.56v-55.26c-10.99-.85-22.02-3.02-33.03-3.66-28.19-1.65-56.45-.08-78.88,19.04-34.28,29.21-26.66,76.45-27.61,116.89h-50.73v62.51h50.73v162.17c-.3-.03-.61.03-.91,0-72.7-7.7-144.08-66.6-172.29-132.56C-55.62,142.82,100.64-41.35,284.89,8.19c90.08,24.22,158.61,107.73,164.69,200.87Z"/>
    </g>
  </g>
</svg>