<?xml version="1.0" encoding="UTF-8"?>
<svg id="Camada_2" data-name="Camada 2" xmlns="http://www.w3.org/2000/svg" viewBox="0 0 1255.49 1252.83">
  <defs>
    <style>
      .cls-1 {
        fill: #ffe7d2;
      }
    </style>
  </defs>
  <g id="Camada_1-2" data-name="Camada 1">
    <g id="rF0pIs.tif">
      <g>
        <g>
          <path class="cls-1" d="M368.39,242.86c0,67.45-54.68,122.13-122.13,122.13s-122.13-54.68-122.13-122.13,54.68-122.13,122.13-122.13,122.13,54.68,122.13,122.13ZM326.01,242.88c0-44.03-35.69-79.73-79.73-79.73s-79.73,35.69-79.73,79.73,35.69,79.73,79.73,79.73,79.73-35.69,79.73-79.73Z"/>
          <g>
            <rect class="cls-1" x="689.91" y="221.93" width="40.4" height="40.4"/>
            <rect class="cls-1" x="770.71" y="221.93" width="40.4" height="40.4"/>
            <rect class="cls-1" x="851.5" y="221.93" width="40.4" height="40.4"/>
            <rect class="cls-1" x="932.3" y="221.93" width="40.4" height="40.4"/>
          </g>
        </g>
        <g>
          <rect class="cls-1" x="487.92" y="605.71" width="40.4" height="40.4"/>
          <rect class="cls-1" x="568.72" y="605.71" width="40.4" height="40.4"/>
          <rect class="cls-1" x="649.51" y="605.71" width="40.4" height="40.4"/>
          <rect class="cls-1" x="730.31" y="605.71" width="40.4" height="40.4"/>
        </g>
        <g>
          <path class="cls-1" d="M1000.47,1252.08c-10.25-1.23-33.64-8.78-44.24-12.56-78.58-28.05-138.31-105.91-145.25-189.29l-161.48-.15c4.74,38.04-9.31,72.44-49.44,80.59H254.59c-40.49-8.44-54.23-42.1-49.44-80.59-44.1-.8-82.72,5.91-123.8-13.8-42.47-20.38-74.83-66.18-78.31-113.58-3.77-51.37-4.32-141.12.02-192.09,5.39-63.41,62.16-118.57,124.98-124.98l279.1.1c-5.08-38.62,10.1-74.74,51.73-80.83l345.32.63c38.78,8.43,51.85,43.68,47.31,80.2l261.31-.05c59.64-4.47,97.79-42.64,102.26-102.26,2.8-37.27,4.31-138.14-5.72-170.96-21.08-68.96-94.65-74.47-155.85-70.15,4.74,38.04-9.31,72.44-49.44,80.59-109.71-6.98-232.56,10.04-340.74.32-42.77-3.84-59.56-41.71-54.18-80.9h-118.67v37.87c-10.54,2.71-50.37,9.53-55.33,16.62-10.07,14.39,18.46,42.3,22.13,57.5l-77.96,78.77c-9.63,4.81-49.91-39.46-62.58-17.33-4.39,7.67-11.34,49.32-13.34,51.04-14.18-1.49-110.37,3.4-113.66-1.25-4.84-9.28-10.79-51.91-17.96-54.89-17.74-7.38-38.69,18.52-54.98,22.57-2.75.68-4.23,1.13-6.36-1.31-9.3-14.79-71.09-64.37-74.09-75.26-2.84-10.3,22.37-37.78,24.49-48.04.65-3.15-2.61-11.91-4.46-14.07-4.21-4.91-52.32-12.15-53.34-15.89l.48-110.49c2.16-6.35,42.1-10.92,50.09-15.56,22.95-13.32-22.67-50.42-16.42-64.21,14.01-9.32,66.38-72.93,76.36-75.5s40.6,26.19,51.92,24.51c18.68-2.77,17.03-54.23,26.15-57.34l111.78-.07c3.06,2.67,9.53,46.51,13.45,52.18,13.25,19.16,50.7-25.07,65.01-18.38l75.4,76.14c-2.8,16.73-32.79,44.14-22.53,59.84,3.41,5.22,47.1,12.63,55.75,16.81v35.35h118.67c-4.54-36.94,8.13-71.44,47.32-80.19l347.61-.39c40.01,7.34,54.2,43.17,49.44,80.59,42.47.94,80.47-5.7,120.37,12.18,43.39,19.44,70.09,58.72,81.63,103.95v191.89c-14.36,61.37-61.23,108.56-124.89,116.24l-279.1-.1c4.51,37.21-8.41,70.91-47.3,80.21l-347.61.38c-40.49-8.44-54.23-42.1-49.44-80.59l-258.92-.09c-64.63,4.4-100.83,43.39-104.8,107.29-2.52,40.54-4.84,151.19,5.88,186.26,20.95,68.54,94.82,74.75,155.85,70.15-4.81-37.81,9.03-72.94,49.44-80.59,109.62,7.08,232.7-10.15,340.75-.32,43.08,3.92,59.13,41.81,54.16,80.92l161.48-.15c14.19-154.37,181.85-250.31,322.5-179.58,65.06,32.72,110.08,98.18,122.01,169.62v60.6c-8.12,40.87-23.44,80.24-50.44,112.42-36.15,43.08-86.31,69.47-141.45,79.48-20.02-1.73-43.61,2.35-63.12,0ZM270.45,42.99l-50.05-.21c-1.57,8.74-6.36,37.43-11.48,42.8-5.29,5.54-37.72,11.6-46.06,19.85l-43.61-21.19c-2.05.92-29.36,31.26-29.91,33.43-2,7.81,17.37,30.64,19.76,39.84-8.06,10.24-13.04,38.78-18.94,46.64-5.26,7-43.84,11.89-44.23,14.19l.47,48.7,42.07,10.94c.26,12.77,19.43,40.55,20.16,49.14.69,8.04-22.62,37.8-21.07,41.25,6.84,4.31,28.31,31.46,33.36,32.42,6.91,1.32,30.01-19.11,40.23-19.77,10.07-.66,35.06,18.81,48.49,18.2,5.13,9.36,6.72,43.01,16.93,44.93,12.16,2.28,30.87-1.4,43.88-.36,2.86-1.85,7.71-36.97,11.71-42.58,1.45-2.04,43.61-19.38,46.08-19.8,14.2-2.41,36.29,23.01,46,18.63,1.97-.89,29.57-28.83,30.1-30.92,1.76-6.97-19.28-30.13-19.9-40.08-.6-9.61,18.22-36.58,18.89-49.05l44.31-14.27-1.27-46.42c-3.48-5.25-39.39-8.73-43.74-13.07-.93-.93-5.07-17.8-6.91-22.13-2.62-6.14-10.04-17.03-10.9-22.15-2.34-13.91,22.68-37.89,18.66-46-1.03-2.07-30.62-32.45-32.93-32.46-8.75,4.13-30.23,21.02-38.31,21.73-6.51.57-38.57-20.01-49.79-19.37l-11.99-42.86ZM669.05,182.13c-14.84,2.87-18.37,12.09-19.63,25.82-1.5,16.31-2.03,60.04.69,75.25,1.73,9.64,7.24,16.17,16.9,18.44l322.1,1.09c11.55-1.3,20.05-5.39,22.9-17.5,3.02-12.84,2.82-67.99.86-82-1.49-10.62-6.51-18.07-17.27-20.6l-326.55-.49ZM467.05,565.91c-14.84,2.87-18.37,12.09-19.63,25.82-1.5,16.31-2.03,60.04.69,75.25,1.73,9.64,7.24,16.17,16.9,18.44l322.1,1.09c11.55-1.3,20.05-5.39,22.9-17.5,3.02-12.84,2.82-67.99.86-82-1.49-10.62-6.51-18.07-17.27-20.6l-326.55-.49ZM1214.12,1029.88c0-99.87-80.96-180.84-180.84-180.84s-180.84,80.96-180.84,180.84,80.96,180.84,180.84,180.84,180.84-80.96,180.84-180.84ZM265.06,969.89c-14.84,2.87-18.37,12.09-19.63,25.82-1.5,16.31-2.03,60.04.69,75.25,1.73,9.64,7.24,16.17,16.9,18.44l322.1,1.09c11.55-1.3,20.05-5.39,22.9-17.5,3.02-12.84,2.82-67.99.86-82-1.49-10.62-6.51-18.07-17.27-20.6l-326.55-.49Z"/>
          <g>
            <rect class="cls-1" x="285.93" y="1009.69" width="40.4" height="40.4"/>
            <rect class="cls-1" x="366.73" y="1009.69" width="40.4" height="40.4"/>
            <rect class="cls-1" x="447.52" y="1009.69" width="40.4" height="40.4"/>
            <path class="cls-1" d="M1120.4,933.99l28.99,28.99c-21.94,14.38-168.06,180.04-179.2,174.37-13.36-6.81-38.13-43.27-53-53.17l28.99-28.99c6.27,3.93,22.43,27.48,29.02,24.09l145.2-145.29Z"/>
            <rect class="cls-1" x="528.32" y="1009.69" width="40.4" height="40.4"/>
          </g>
        </g>
      </g>
    </g>
  </g>
</svg>