<?xml version="1.0" encoding="UTF-8"?>
<svg id="Camada_2" data-name="Camada 2" xmlns="http://www.w3.org/2000/svg" viewBox="0 0 452.1 452.25">
  <defs>
    <style>
      .cls-1 {
        fill: #ffe7d2;
      }
    </style>
  </defs>
  <g id="Camada_1-2" data-name="Camada 1">
    <g id="ersKqj.tif">
      <g>
        <path class="cls-1" d="M452.1,207.27v37.93l-6.77,37.93c-20.19,78.6-83.58,141.81-162.09,162.09l-37.93,6.77c-12.42-.62-25.61.84-37.93,0-84.55-5.74-162.8-66.39-192.36-144.92C-47.96,139.75,96.6-30,271.53,4.51c95.69,18.87,173.91,104.59,180.57,202.76ZM159.34,89.24c-42.71,3.79-69.28,33.87-72.1,76,6.69,70.18-29.6,188.17,73.65,198.24,71.81-7.47,197.29,32.15,204.51-76.3-7.25-67.11,29.2-180.94-65.72-197.04-44.95.55-95.78-4.84-140.34-.9Z"/>
        <g>
          <path class="cls-1" d="M182.82,113.62c27.31-1,57.35-1.17,84.66-.3,20.23.64,43.51.72,58.23,16.72,7.78,8.45,13.43,22.01,14.41,33.45,3.44,40.09-2.53,84.9,0,125.49-3.71,29.58-22.01,47.2-51.87,49.27-32.02,2.22-69.81,1.9-102.12.91-35.74-1.09-68.47-5.71-73.3-48.61-3.76-33.39-2.31-82.32-.26-116.25,3.03-50.17,23.28-58.97,70.26-60.68ZM314.49,153.23c0-7.92-6.42-14.33-14.33-14.33s-14.33,6.42-14.33,14.33,6.42,14.33,14.33,14.33,14.33-6.42,14.33-14.33ZM299.48,226.24c0-40.39-32.74-73.13-73.13-73.13s-73.13,32.74-73.13,73.13,32.74,73.13,73.13,73.13,73.13-32.74,73.13-73.13Z"/>
          <circle class="cls-1" cx="226.35" cy="226.22" r="47.74"/>
        </g>
      </g>
    </g>
  </g>
</svg>