<?xml version="1.0" encoding="UTF-8"?>
<svg id="Camada_2" data-name="Camada 2" xmlns="http://www.w3.org/2000/svg" viewBox="0 0 949.37 953.8">
  <defs>
    <style>
      .cls-1 {
        fill: #ffe7d2;
      }
    </style>
  </defs>
  <g id="Camada_1-2" data-name="Camada 1">
    <g id="OlOCvw.tif">
      <g>
        <path class="cls-1" d="M889.62,204.31l-29.4,55.23c-30.73,20-39.55-37.08-54-53.74-7.92-9.13-39.18-20.28-50.9-29.09-35.46-26.64,35.81-45.03,49.24-58.4,10.82-10.78,18.34-37.24,27.95-50.17,27.24-36.64,45.3,38.35,58.56,50.94,10.47,9.94,37.72,17.98,50.02,28.11,31.57,26.01-36.2,46-51.47,57.12ZM865.57,143.66c-2.61-2.61-16.47-32.86-19.21-30.99-5.33,8.45-9.75,24.17-16.67,30.78-7.28,6.96-22.74,12.35-31.7,17.6l31.69,19.43c6.41,9.58,13.15,19.73,16.68,30.77,1.96,1.48,16.22-28.09,18.55-30.71,5.99-6.76,23.23-13.17,31.64-17.67,1.71-2.25-28.58-16.8-30.99-19.21Z"/>
        <path class="cls-1" d="M166.85,76.17c0,28.49-23.09,51.58-51.58,51.58s-51.58-23.09-51.58-51.58,23.09-51.58,51.58-51.58,51.58,23.09,51.58,51.58ZM132.84,76.05c0-9.67-7.84-17.51-17.51-17.51s-17.51,7.84-17.51,17.51,7.84,17.51,17.51,17.51,17.51-7.84,17.51-17.51Z"/>
        <g>
          <path class="cls-1" d="M0,600.01c3.42-5.02,7.46-7.63,12.46-10.79,9.54-6.03,41.18-19.66,46.56-25.05,6.96-6.97,18.16-39.13,26.86-50.33,7.7-9.92,19.32-13.71,28.43-3.03,10.57,12.4,18.3,40.55,28.11,51.87,10.46,12.07,85.69,33.45,52.77,58.62-11.03,8.44-44.14,20.3-51.48,27.58-8.45,8.39-18.84,39.7-27.59,51.46-6.32,8.49-13.46,12.17-23.64,7.13-11.31-5.6-23.99-47.69-34.92-58.07-13.59-12.89-45.97-18.97-57.57-36.36v-13.02ZM150.65,605.62c-24.93-7.9-40.5-23.45-48.37-48.38-2.18-1.65-16.42,28.32-18.55,30.71-6.04,6.79-23.19,13.16-31.64,17.67-1.71,2.25,28.58,16.8,30.99,19.21,2.61,2.61,16.47,32.86,19.21,30.99l15.74-29.85,32.63-20.34Z"/>
          <path class="cls-1" d="M633.83,684.04c8.25-1.37,44.14,17.08,53.11,22.36,73.19,43.16,99.32,116.22,27.36,177.3-111.45,94.6-422.12,98.3-518.93-18.68-37.69-45.55-28.22-108.26,20.53-141.18,16.15-10.91,32.83,1.68,27.39,19.96-1.28,4.32-19.37,19-23.75,24.6-26.53,33.95-11.91,65.36,17.58,90.21,97.56,82.22,352.63,80.66,452.01,1.78,65.87-52.28,24.09-102.51-34.29-133.04-7.39-3.87-25.96-8.91-30.67-13.97-9.33-10.04-3.95-27.08,9.67-29.33Z"/>
          <circle class="cls-1" cx="291.16" cy="701.26" r="16.87"/>
        </g>
        <g>
          <path class="cls-1" d="M494.78,1.06c158.93,13.93,261.57,169.69,233.82,322.18-25.13,138.13-157.05,369.2-243.47,481.97-10.05,13.11-20.48,26.05-35.78,8.57-24.73-28.26-53.76-78.62-74.39-111.62-67.71-108.3-178.92-300.86-181.58-428.51C190.59,139.89,298.86,12.85,433.4,1.06c16.12-1.41,45.26-1.41,61.38,0ZM442.33,35.1c-100.24,8.21-188.13,85.27-208.9,183.58-18.62,88.09,21.87,186.08,58.87,264.82,47.73,101.57,109.3,198.39,171.79,291.33,67.7-100.41,134.37-205.74,183.55-316.78,49.48-111.73,85.63-227.41,2.27-334.02-49.2-62.93-127.86-95.45-207.58-88.92Z"/>
          <path class="cls-1" d="M461.34,168.47c56.91-61.01,153.03-12.26,168.72,60.97,16.26,75.91-45.13,143.17-101.21,184.22-13.75,10.06-41.71,30.4-56.3,36.71-17.14,7.4-28.49-4.29-42.71-13.27-70.13-44.26-156.83-129.75-128.53-221.22,16.58-53.61,73.64-91.17,128.88-71.16,10.66,3.86,26.02,13.91,31.15,23.76ZM388.31,174.53c-22.7,3.29-42.75,23.01-51.37,43.49-30.39,72.17,45.34,145.68,99.59,182.61,5.28,3.59,21.79,16.03,27.09,14.9,4.27-.91,36.89-23.52,42.9-27.92,51.08-37.4,122.38-109.33,79.04-176.94-19.99-31.19-73.86-52.58-100.08-17.1-6.3,8.52-8.56,23.64-23.06,23.17-13.68-.44-18.05-19.08-26.19-27.87-12.81-13.82-29.74-16.99-47.92-14.36Z"/>
        </g>
      </g>
    </g>
  </g>
</svg>