<?xml version="1.0" encoding="UTF-8"?>
<svg id="Camada_2" data-name="Camada 2" xmlns="http://www.w3.org/2000/svg" viewBox="0 0 2060.77 2060.78">
  <defs>
    <style>
      .cls-1 {
        fill: #ee7d00;
      }

      .cls-2 {
        fill: #8f352a;
      }

      .cls-3 {
        fill: #77a860;
      }

      .cls-4 {
        fill: #d52617;
      }
    </style>
  </defs>
  <g id="Camada_1-2" data-name="Camada 1">
    <g>
      <path class="cls-2" d="M1996.32,965.93c-24.15,0-45.16,13.3-56.2,32.95h-123l81.64-119.41c18.36-26.86,23.23-60.05,13.36-91.05-9.87-31-33.04-55.26-63.55-66.56l-134.54-49.8,119.97-69.27c19.39,11.5,44.24,12.51,65.15.44,30.83-17.8,41.39-57.22,23.59-88.05-17.8-30.83-57.22-41.39-88.05-23.59-20.91,12.07-32.46,34.1-32.2,56.64l-115.01,66.4-13.91-229.29c-1.63-26.87-26.35-46.3-52.84-41.53l-175.48,31.56c-.11.02-.23.02-.34.04l67.63-117.14c22.54.27,44.57-11.28,56.64-32.2,17.8-30.83,7.24-70.25-23.59-88.05-30.83-17.8-70.25-7.24-88.04,23.59-12.07,20.91-11.06,45.76.44,65.15l-80.99,140.27c-5.67-3.92-10.51-9.07-13.93-15.32l-105.59-192.71c-13.76-25.11-47.17-31.14-68.84-12.42l-126.74,109.52V120.66c19.65-11.04,32.95-32.05,32.95-56.2,0-35.6-28.86-64.45-64.45-64.45s-64.45,28.86-64.45,64.45c0,24.15,13.3,45.16,32.95,56.2v161.66l-230.61-87.94c-24.06-9.18-50.9,3.69-58.81,28.2l-39.12,121.2-67.54-116.99c11.5-19.39,12.51-44.24.44-65.15-17.8-30.83-57.22-41.39-88.05-23.59-30.83,17.8-41.39,57.22-23.59,88.05,12.07,20.91,34.1,32.46,56.64,32.2l79.79,138.21-161.87-12.34c-2.68-.2-5.39-.31-8.06-.31h0c-30.92,0-60.12,13.59-80.11,37.29-19.97,23.67-28.43,54.76-23.22,85.3l18.47,108.17-114.95-66.37c.27-22.54-11.28-44.57-32.2-56.64-30.83-17.8-70.25-7.24-88.04,23.59-17.8,30.83-7.24,70.25,23.59,88.05,20.91,12.07,45.76,11.06,65.15-.44l138.72,80.09c-.06.04-.11.09-.17.13l-211.61,139.92c-22.46,14.85-26.92,45.97-9.55,66.53l92.45,109.42h-115.97c-11.04-19.65-32.05-32.95-56.2-32.95-35.6,0-64.45,28.86-64.45,64.45s28.86,64.45,64.45,64.45c24.15,0,45.16-13.3,56.2-32.95h159.24l1.11,2.05c7.59,14.05,7.15,31.07-1.14,44.71l-114.09,187.8c-14.87,24.47-3.38,56.42,23.66,65.82l126.78,44.07-89.43,51.63c-19.39-11.5-44.24-12.51-65.15-.44-30.83,17.8-41.39,57.22-23.59,88.05,17.8,30.83,57.22,41.39,88.04,23.59,20.91-12.07,32.46-34.1,32.2-56.64l140.1-80.89c-.75,4.65-.82,9.45-.04,14.28l41.21,256.49c4.09,25.43,28.65,42.24,53.83,36.83l104.29-22.38-49.43,85.62c-22.54-.27-44.57,11.28-56.64,32.2-17.8,30.83-7.24,70.25,23.59,88.05,30.83,17.8,70.25,7.24,88.05-23.59,12.07-20.91,11.06-45.76-.44-65.15l73.4-127.14c1.88,5.47,4.01,10.86,6.52,16.09l71.3,148.54c17.63,36.72,53.9,59.53,94.67,59.53,24.36,0,48.12-8.59,66.92-24.19l83.27-69.1v102.41c-19.65,11.04-32.95,32.05-32.95,56.2,0,35.6,28.86,64.45,64.45,64.45s64.45-28.86,64.45-64.45c0-24.15-13.3-45.16-32.95-56.2v-134.08c.77.33,1.56.63,2.32,1.01l226.98,113.3c24.09,12.02,53.27.33,62.39-25l53.71-149.16,50.69,87.79c-11.5,19.39-12.51,44.24-.44,65.15,17.8,30.83,57.22,41.39,88.04,23.59,30.83-17.8,41.39-57.22,23.59-88.05-12.07-20.91-34.1-32.46-56.64-32.2l-69.82-120.94c5.2-5.22,11.58-9.07,18.57-11.25,16.8-.37,33.91-.78,50.62-1.23l183.33,4.1c28.63.64,50.55-25.28,45.17-53.4l-30.77-160.84,92.86,53.61c-.27,22.54,11.29,44.57,32.2,56.64,30.83,17.8,70.25,7.24,88.05-23.59,17.8-30.83,7.24-70.25-23.59-88.05-20.91-12.07-45.76-11.06-65.15.44l-117.75-67.98,194.39-158.13c19.98-16.25,22.25-45.93,4.98-65.03l-94.85-104.94h119.35c11.04,19.65,32.06,32.95,56.2,32.95,35.6,0,64.45-28.86,64.45-64.45s-28.86-64.45-64.45-64.45Z"/>
      <g>
        <g>
          <path class="cls-1" d="M893.15,1094.45l44.07-27.04c44.42-27.26,71.5-75.64,71.5-127.75v-5.29h.59l.02-312.53c0-19-11.94-35.95-29.83-42.34l-329.14-117.67c-7.87-2.92-16.1-4.72-24.46-5.36l-164.29-12.52c-1.18-.09-2.35-.13-3.51-.13-27.51,0-48.96,24.87-44.23,52.54l26.24,153.72c2.25,13.18,10.25,24.67,21.82,31.36l165.03,95.37c13.66,7.89,25,19.24,32.89,32.9l159.19,275.73c8.33,14.43,23.44,22.49,38.98,22.49,7.6,0,15.31-1.93,22.38-5.99l12.82-7.37-.07-.1Z"/>
          <path class="cls-3" d="M569.18,893.41s-98.35,83.91-157.51,133.2c-17.88,14.9-41.65,43.72-52.89,64.1-25.51,46.28-64.18,116.73-84.83,157.59-16.08,31.81-22.39,65.74,10.99,78.24l105.48,39.51c5.1,1.91,10.45,2.86,15.77,2.86,7.88,0,15.72-2.07,22.68-6.14l187.88-109.76,125.45-72.43c21.51-12.42,28.88-39.92,16.46-61.42l-122.86-212.8c-8.41-14.57-23.57-22.49-39-22.49-9.62,0-19.35,3.08-27.62,9.54Z"/>
          <path class="cls-4" d="M360.11,977.4l145.33-124.47c23.12-19.8,20.29-56.37-5.59-72.39l-59.95-37.09c-6.13-3.79-12.37-5.36-18.66-5.36-13.06,0-26.32,6.77-39.21,14.42-33.77,20.02-90.46,57.05-119.11,78.23-26.27,19.42-45.27,46.91-23.95,72.49l57.35,68.82c8.9,10.68,21.69,16.18,34.57,16.18,10.34,0,20.74-3.55,29.23-10.82Z"/>
          <path class="cls-3" d="M757.59,423.88l191.61,68.63c5.08,1.82,10.21,2.67,15.22,2.67,23.84,0,44.91-19.29,44.91-45v-62.85c0-22.5-16.83-36.2-38.92-44.56l-143.6-54.22c-11.78-4.53-23.9-7.46-34.94-7.46-16.62,0-30.79,6.65-37.58,24.54l-22.87,60.2c-8.84,23.26,2.89,49.27,26.18,58.04Z"/>
        </g>
        <g>
          <path class="cls-4" d="M1168.51,1153.85l-37.23-21.58-18.64-10.44c-45.72-25.62-101.47-25.46-147.05.33l-277.32,160.09c-16.45,9.5-25.16,28.31-21.76,47.01l62.67,343.88c1.41,8.27,3.96,16.3,7.59,23.87l71.3,148.54c7.89,16.43,24.08,25.52,40.62,25.52,10.01,0,20.14-3.33,28.63-10.37l120-99.59c10.29-8.54,16.24-21.21,16.25-34.58l.08-190.61c0-15.77,4.16-31.27,12.05-44.93l159.19-275.73c12.4-21.48,5.07-48.95-16.39-61.39Z"/>
          <path class="cls-1" d="M1143.54,1527.64s121.84,43.22,194.11,69.81c21.08,7.75,56.11,13.78,79.46,13.78.85,0,1.69,0,2.5-.02,52.84-1.05,133.18-2.79,178.89-5.33,35.59-1.98,68.13-13.48,62.26-48.64l-18.52-111.11c-2.22-13.34-10.33-24.96-22.07-31.66l-188.99-107.83-125.45-72.43c-7.08-4.09-14.81-6.03-22.44-6.03-15.54,0-30.65,8.06-38.98,22.49l-122.86,212.8c-13.66,23.66-3.24,53.94,22.1,64.17Z"/>
          <path class="cls-3" d="M1320.81,1666.7l-180.46-63.62c-5.01-1.77-10.07-2.59-15-2.59-23.37,0-44.13,18.51-44.89,43.63l-2.14,70.46c-.68,22.19,17.42,34.71,36.77,45.59,34.23,19.24,94.64,49.81,127.3,64.04,12.72,5.54,26.05,9.22,38.06,9.22,16.26,0,30.09-6.74,36.7-24.72l30.92-84.07c8.65-23.53-3.61-49.59-27.25-57.93Z"/>
          <path class="cls-1" d="M541.96,1661.22l63.57-10.3c24.56-3.98,41.22-27.14,37.18-51.69l-36.37-200.25c-4.08-22.46-23.58-36.97-44.31-36.97-7.53,0-15.23,1.92-22.41,6.06l-54.43,31.42c-19.48,11.25-22.93,32.68-19.13,55.99l24.84,151.47c4.54,28.74,17.35,54.87,43.87,54.87,2.29,0,4.68-.19,7.18-.6Z"/>
        </g>
        <g>
          <path class="cls-3" d="M1827.74,778.09l-146.24-54.13c-5.06-1.87-10.34-2.8-15.61-2.8-7.8,0-15.56,2.03-22.47,6.02l-165.11,95.24c-13.66,7.88-29.16,12.03-44.93,12.03h-318.39c-24.8,0-44.92,20.09-44.97,44.89l-.12,74.31c4.26,46.62,30.07,88.92,70.33,113.83l27.39,16.95-.05.08,253.76,146.53c7,4.04,14.76,6.03,22.48,6.03,10.43,0,20.79-3.62,29.11-10.69l266.47-226.22c6.46-5.35,12.14-11.58,16.87-18.5l92.99-136.02c16.51-24.15,5.92-57.39-21.51-67.55Z"/>
          <path class="cls-4" d="M1115.97,765.29h245.73c27.32,0,48.33-24.17,44.53-51.22,0,0-23.49-127.13-36.6-203.01-3.96-22.94-17.03-57.93-29.07-77.86-27.32-45.23-69-113.94-94.06-152.26-13.94-21.32-31.32-38.86-50.14-38.86-7.51,0-15.26,2.79-23.11,9.26l-86.96,71.59c-10.44,8.59-16.45,21.43-16.38,34.94l1.11,217.59v144.86c0,24.83,20.13,44.97,44.97,44.97Z"/>
          <path class="cls-1" d="M1621.82,622.44c-.45-39.26-4.18-106.87-8.19-142.27-3.38-29.79-15.71-57.68-43.08-57.68-2.45,0-5.02.22-7.72.69l-88.27,15.26c-24.7,4.27-41.15,27.92-36.54,52.57l35.13,188.09c4.16,22.27,23.56,36.74,44.26,36.74,7.11,0,14.38-1.71,21.23-5.39l62.09-33.37c19.56-10.51,21.34-32.44,21.09-54.64Z"/>
          <path class="cls-4" d="M1747.12,1101.8c-10.03,0-20.12,3.34-28.48,10.2l-155.24,131.62c-23.73,20.12-20.35,57.68,6.6,73.24l54.43,31.42c6.43,3.71,12.95,5.36,19.46,5.36,13.2,0,26.34-6.77,38.59-16.79l118.76-97.25c24.58-19.88,41.6-46.67,21.47-71.35l-40.7-49.91c-8.89-10.9-21.83-16.55-34.87-16.55Z"/>
        </g>
      </g>
    </g>
  </g>
</svg>