<?xml version="1.0" encoding="UTF-8"?>
<svg id="Camada_2" data-name="Camada 2" xmlns="http://www.w3.org/2000/svg" viewBox="0 0 7667.11 2547.79">
  <defs>
    <style>
      .cls-1 {
        fill: #ee7d00;
      }

      .cls-2 {
        fill: #fff;
      }

      .cls-3 {
        fill: #77a860;
      }

      .cls-4 {
        fill: #d52617;
      }
    </style>
  </defs>
  <g id="Camada_1-2" data-name="Camada 1">
    <g id="Horizontal_Cor_Negativa" data-name="Horizontal Cor Negativa">
      <g>
        <path class="cls-2" d="M3216.75,988.83c0-192.64,113.47-285,281.04-285s279.73,92.36,279.73,286.31v6.6h-124.02v-7.91c0-120.07-63.33-168.89-155.7-168.89s-155.69,48.82-155.69,168.89v383.96h-125.35v-383.96Z"/>
        <path class="cls-2" d="M3887.01,720.98h125.35v651.81h-125.35v-651.81Z"/>
        <path class="cls-2" d="M4843.39,1046.89c0-197.92,145.14-343.06,350.97-343.06s350.98,145.14,350.98,343.06-145.14,343.06-350.98,343.06-350.97-145.14-350.97-343.06ZM5418.67,1046.89c0-131.95-89.72-226.95-224.31-226.95s-224.31,95-224.31,226.95,89.73,226.95,224.31,226.95,224.31-95,224.31-226.95Z"/>
        <path class="cls-2" d="M6961.97,1052.16c0-204.52,145.14-348.33,352.29-348.33s347.02,139.86,347.02,348.33v320.63h-114.8v-142.5c-43.54,105.56-139.86,159.65-253.34,159.65-170.2,0-331.18-122.71-331.18-337.78ZM7537.25,1046.89c0-131.95-89.72-226.95-224.31-226.95s-224.31,95-224.31,226.95,89.73,226.95,224.31,226.95,224.31-95,224.31-226.95Z"/>
        <path class="cls-2" d="M3216.75,1920.17v-340.42h125.35v340.42c0,141.18,77.84,212.43,196.59,212.43s196.61-71.26,196.61-212.43v-340.42h125.35v340.42c0,216.39-129.31,328.54-321.95,328.54s-321.94-110.84-321.94-328.54Z"/>
        <path class="cls-2" d="M3976.76,1847.6c0-192.64,113.47-285,281.04-285s279.73,92.36,279.73,286.31v6.6h-124.02v-7.91c0-120.07-63.33-168.89-155.7-168.89s-155.69,48.82-155.69,168.89v383.96h-125.35v-383.96Z"/>
        <path class="cls-2" d="M4623.25,1900.38v-605.63h125.35v399.79c47.49-84.45,137.22-131.94,242.77-131.94,170.22,0,331.19,122.71,331.19,339.09,0,204.52-145.15,347.02-352.29,347.02s-347.02-135.9-347.02-348.33ZM5195.89,1905.66c0-131.95-89.72-226.95-224.31-226.95s-222.98,95-222.98,226.95,89.72,226.95,222.98,226.95,224.31-95,224.31-226.95Z"/>
        <path class="cls-2" d="M5417.58,1910.93c0-204.52,145.14-348.33,352.29-348.33s347.02,139.86,347.02,348.33v320.63h-114.8v-142.5c-43.54,105.56-139.86,159.65-253.34,159.65-170.2,0-331.18-122.71-331.18-337.78ZM5992.86,1905.66c0-131.95-89.72-226.95-224.31-226.95s-224.31,95-224.31,226.95,89.73,226.95,224.31,226.95,224.31-95,224.31-226.95Z"/>
        <path class="cls-2" d="M6549.58,1562.6c-192.64,0-321.94,112.15-321.94,329.86v339.11h125.35v-339.11c0-141.18,77.84-213.74,196.59-213.74s196.61,72.57,196.61,213.74v617.52h125.35v-617.52c0-219.02-129.31-329.86-321.95-329.86Z"/>
        <path class="cls-2" d="M6512.28,703.83c-112.22,0-202.88,38.13-259.07,112.94-56.16-75.07-147-112.94-259.5-112.94-192.64,0-321.94,112.15-321.94,329.86v339.11h125.35v-339.11c0-141.18,77.84-213.74,196.59-213.74s196.61,72.57,196.61,213.74v339.11h125.38v-339.11c0-141.18,77.84-213.74,196.59-213.74s196.61,72.57,196.61,213.74v339.11h125.35v-339.11c0-219.02-129.31-329.86-321.95-329.86Z"/>
        <path class="cls-2" d="M6965.16,1905.66c0-197.92,145.14-343.06,350.97-343.06s350.98,145.14,350.98,343.06-145.14,343.06-350.98,343.06-350.97-145.14-350.97-343.06ZM7540.43,1905.66c0-131.95-89.72-226.95-224.31-226.95s-224.31,95-224.31,226.95,89.73,226.95,224.31,226.95,224.31-95,224.31-226.95Z"/>
        <path class="cls-2" d="M4735.4,823.91s32.69-29.34,32.69-56.32c.03-47.32-32.69-46.6-32.69-46.6h-567.38v112.15h399.8l-419.59,436.74v102.92h600.35v-112.15h-432.78l419.59-436.74Z"/>
      </g>
      <g>
        <path class="cls-2" d="M3216.16,47.18h51.88v471.28h-51.88V47.18Z"/>
        <path class="cls-2" d="M3499.37,232.38c0-118.9,70.62-194.56,198.17-194.56s197.45,75.67,197.45,194.56v286.08h-51.88V232.38c0-90.79-50.44-147-145.57-147s-146.28,56.21-146.28,147v286.08h-51.88V232.38Z"/>
        <path class="cls-2" d="M4101.12,385.87h51.16c2.16,59.81,46.12,94.4,121.07,94.4s121.07-36.75,121.07-94.4c0-61.97-59.82-72.78-123.95-82.15-76.39-10.81-158.53-25.22-158.53-125.39,0-83.59,64.86-140.52,162.14-140.52s158.53,54.05,161.41,136.2h-49.72c-2.89-54.05-43.96-88.64-111.69-88.64s-111.7,36.03-111.7,91.52c0,60.53,59.09,70.62,123.23,80.71,76.39,12.25,159.25,25.94,159.25,126.83,0,87.91-67.74,143.4-171.5,143.4s-170.06-54.05-172.22-141.96Z"/>
        <path class="cls-2" d="M4780.68,94.75h-159.98v-47.56h371.84v47.56h-159.97v423.72h-51.88V94.75Z"/>
        <path class="cls-2" d="M5206.58,47.18h51.88v471.28h-51.88V47.18Z"/>
        <path class="cls-2" d="M5631.75,94.75h-159.98v-47.56h371.84v47.56h-159.97v423.72h-51.88V94.75Z"/>
        <path class="cls-2" d="M6044.68,333.27V47.18h51.88v286.08c0,90.79,50.44,147,145.57,147s145.56-56.93,145.56-147V47.18h50.44v286.08c0,118.9-69.9,194.56-195.29,194.56s-198.17-75.67-198.17-194.56Z"/>
        <path class="cls-2" d="M6798.46,94.75h-159.98v-47.56h371.84v47.56h-159.97v423.72h-51.88V94.75Z"/>
        <path class="cls-2" d="M7162.4,282.82c0-141.24,103.77-245.01,250.77-245.01s250.77,103.77,250.77,245.01-103.77,245.01-250.77,245.01-250.77-103.77-250.77-245.01ZM7612.06,282.82c0-113.85-81.43-197.45-198.89-197.45s-198.89,83.59-198.89,197.45,81.43,197.45,198.89,197.45,198.89-83.59,198.89-197.45Z"/>
      </g>
      <g>
        <path class="cls-2" d="M2468.1,1194.21c-29.85,0-55.84,16.44-69.49,40.74h-152.07l100.93-147.63c22.7-33.21,28.72-74.24,16.51-112.57-12.21-38.33-40.85-68.32-78.57-82.29l-166.33-61.56,148.32-85.63c23.97,14.22,54.69,15.47,80.55.54,38.11-22,51.17-70.74,29.17-108.85-22.01-38.11-70.74-51.17-108.85-29.17-25.85,14.93-40.13,42.16-39.81,70.03l-142.19,82.09-17.2-283.48c-2.02-33.22-32.57-57.24-65.33-51.35l-216.95,39.02c-.14.02-.28.03-.42.05l83.61-144.82c27.87.33,55.1-13.95,70.02-39.8,22.01-38.11,8.95-86.85-29.17-108.85-38.11-22-86.85-8.95-108.85,29.17-14.93,25.85-13.68,56.58.54,80.55l-100.13,173.42c-7.01-4.84-12.99-11.21-17.22-18.94l-130.54-238.25c-17.01-31.04-58.32-38.49-85.1-15.35l-156.7,135.41v-167.51c24.3-13.65,40.74-39.63,40.74-69.48,0-44.01-35.68-79.69-79.69-79.69s-79.69,35.68-79.69,79.69c0,29.85,16.44,55.83,40.74,69.48v199.86l-285.11-108.72c-29.75-11.34-62.93,4.57-72.71,34.87l-48.37,149.84-83.5-144.63c14.22-23.97,15.47-54.69.54-80.55-22.01-38.11-70.74-51.17-108.85-29.17-38.11,22-51.17,70.74-29.17,108.85,14.93,25.85,42.16,40.13,70.02,39.8l98.65,170.87-200.13-15.25c-3.31-.25-6.66-.38-9.97-.38h0c-38.23,0-74.33,16.81-99.04,46.1-24.69,29.26-35.15,67.7-28.71,105.45l22.84,133.74-142.11-82.05c.33-27.87-13.95-55.1-39.81-70.03-38.11-22-86.85-8.95-108.85,29.17-22.01,38.11-8.95,86.85,29.17,108.85,25.85,14.93,56.57,13.68,80.55-.54l171.5,99.02c-.07.05-.14.11-.21.16l-261.62,172.98c-27.76,18.36-33.28,56.83-11.8,82.25l114.3,135.28h-143.37c-13.65-24.3-39.63-40.74-69.48-40.74-44.01,0-79.69,35.68-79.69,79.69s35.68,79.69,79.69,79.69c29.85,0,55.83-16.44,69.48-40.74h196.87l1.37,2.53c9.38,17.37,8.84,38.41-1.4,55.28l-141.06,232.18c-18.38,30.25-4.18,69.75,29.26,81.37l156.75,54.49-110.57,63.83c-23.97-14.22-54.69-15.47-80.54-.54-38.12,22-51.17,70.74-29.17,108.85,22,38.11,70.74,51.17,108.85,29.17,25.86-14.93,40.13-42.16,39.81-70.02l173.22-100.01c-.93,5.75-1.01,11.69-.05,17.65l50.95,317.11c5.05,31.44,35.42,52.22,66.55,45.54l128.93-27.66-61.11,105.85c-27.87-.33-55.1,13.95-70.02,39.8-22.01,38.11-8.95,86.85,29.17,108.85,38.11,22,86.85,8.95,108.85-29.17,14.93-25.85,13.68-56.58-.54-80.55l90.75-157.18c2.33,6.76,4.96,13.43,8.06,19.89l88.15,183.64c21.79,45.4,66.64,73.59,117.05,73.59,30.11,0,59.49-10.62,82.74-29.91l102.95-85.43v126.61c-24.3,13.65-40.74,39.63-40.74,69.48,0,44.01,35.68,79.69,79.69,79.69s79.69-35.68,79.69-79.69c0-29.85-16.44-55.83-40.74-69.48v-165.77c.96.41,1.93.78,2.87,1.25l280.62,140.08c29.78,14.86,65.86.41,77.13-30.9l66.41-184.41,62.66,108.53c-14.22,23.97-15.47,54.69-.54,80.55,22,38.11,70.74,51.17,108.85,29.17,38.12-22,51.17-70.74,29.17-108.85-14.93-25.85-42.16-40.13-70.02-39.8l-86.32-149.52c6.42-6.46,14.32-11.21,22.96-13.91,20.77-.46,41.93-.96,62.58-1.52l226.66,5.06c35.39.79,62.49-31.26,55.84-66.03l-38.04-198.85,114.8,66.28c-.33,27.87,13.95,55.1,39.81,70.02,38.11,22,86.85,8.95,108.85-29.17,22.01-38.11,8.95-86.85-29.17-108.85-25.86-14.93-56.58-13.68-80.55.54l-145.58-84.05,240.33-195.5c24.7-20.09,27.51-56.78,6.16-80.4l-117.27-129.74h147.56c13.65,24.3,39.63,40.74,69.49,40.74,44.01,0,79.68-35.68,79.68-79.69s-35.68-79.69-79.68-79.69Z"/>
        <g>
          <g>
            <path class="cls-1" d="M1104.23,1353.09l54.48-33.43c54.92-33.7,88.39-93.51,88.39-157.95v-6.55h.73l.02-386.39c0-23.49-14.76-44.44-36.88-52.35l-406.93-145.47c-9.72-3.61-19.9-5.84-30.24-6.63l-203.11-15.48c-1.46-.11-2.9-.17-4.34-.17-34.02,0-60.53,30.74-54.69,64.95l32.45,190.04c2.78,16.29,12.67,30.51,26.98,38.78l204.03,117.91c16.89,9.76,30.91,23.78,40.66,40.67l196.81,340.89c10.3,17.83,28.98,27.81,48.2,27.81,9.4,0,18.93-2.39,27.66-7.41l15.85-9.11-.08-.12Z"/>
            <path class="cls-3" d="M703.69,1104.54s-121.6,103.74-194.73,164.68c-22.11,18.42-51.5,54.05-65.39,79.25-31.54,57.22-79.34,144.32-104.88,194.83-19.88,39.33-27.68,81.27,13.59,96.73l130.41,48.85c6.31,2.36,12.92,3.53,19.5,3.53,9.74,0,19.43-2.56,28.04-7.59l232.28-135.7,155.1-89.55c26.59-15.35,35.7-49.35,20.35-75.94l-151.9-263.1c-10.4-18.02-29.14-27.8-48.22-27.8-11.9,0-23.93,3.8-34.15,11.79Z"/>
            <path class="cls-4" d="M445.22,1208.38l179.67-153.89c28.58-24.48,25.09-69.7-6.92-89.5l-74.11-45.85c-7.58-4.69-15.3-6.63-23.07-6.63-16.15,0-32.54,8.38-48.48,17.83-41.76,24.75-111.84,70.54-147.26,96.71-32.48,24.01-55.97,58-29.61,89.62l70.9,85.08c11,13.2,26.82,20,42.73,20,12.79,0,25.65-4.39,36.14-13.37Z"/>
            <path class="cls-3" d="M936.63,524.06l236.89,84.85c6.29,2.25,12.63,3.3,18.82,3.3,29.48,0,55.52-23.85,55.52-55.64v-77.7c0-27.81-20.81-44.75-48.12-55.09l-177.53-67.03c-14.56-5.6-29.55-9.23-43.2-9.23-20.55,0-38.06,8.23-46.47,30.34l-28.27,74.43c-10.92,28.75,3.58,60.91,32.36,71.76Z"/>
          </g>
          <g>
            <path class="cls-4" d="M1444.65,1426.54l-46.03-26.68-23.05-12.91c-56.53-31.67-125.45-31.47-181.8.4l-342.85,197.92c-20.34,11.74-31.11,35-26.9,58.11l77.48,425.15c1.74,10.23,4.9,20.16,9.38,29.51l88.15,183.64c9.75,20.31,29.78,31.55,50.22,31.55,12.37,0,24.91-4.12,35.4-12.83l148.36-123.12c12.72-10.56,20.08-26.23,20.09-42.76l.1-235.65c0-19.5,5.14-38.66,14.9-55.55l196.82-340.89c15.33-26.56,6.26-60.52-20.27-75.89Z"/>
            <path class="cls-1" d="M1413.79,1888.66s150.64,53.44,239.98,86.3c26.06,9.59,69.38,17.03,98.23,17.03,1.05,0,2.08,0,3.1-.03,65.32-1.29,164.65-3.45,221.17-6.59,44-2.44,84.23-16.66,76.98-60.13l-22.9-137.37c-2.75-16.49-12.77-30.86-27.29-39.15l-233.66-133.31-155.1-89.55c-8.75-5.05-18.31-7.46-27.74-7.46-19.21,0-37.9,9.97-48.2,27.81l-151.9,263.1c-16.89,29.25-4,66.69,27.32,79.34Z"/>
            <path class="cls-3" d="M1632.96,2060.59l-223.11-78.65c-6.19-2.18-12.44-3.2-18.55-3.2-28.9,0-54.56,22.89-55.5,53.94l-2.65,87.11c-.83,27.43,21.54,42.91,45.47,56.36,42.31,23.79,117.01,61.59,157.39,79.17,15.73,6.85,32.21,11.39,47.05,11.39,20.1,0,37.2-8.33,45.37-30.56l38.23-103.94c10.7-29.09-4.46-61.31-33.69-71.62Z"/>
            <path class="cls-1" d="M670.04,2053.81l78.59-12.73c30.36-4.92,50.96-33.56,45.97-63.91l-44.96-247.58c-5.04-27.76-29.15-45.71-54.79-45.7-9.31,0-18.83,2.37-27.71,7.49l-67.29,38.85c-24.09,13.91-28.35,40.4-23.65,69.22l30.71,187.27c5.61,35.54,21.45,67.84,54.24,67.84,2.83,0,5.79-.24,8.88-.74Z"/>
          </g>
          <g>
            <path class="cls-3" d="M2259.69,961.97l-180.8-66.92c-6.25-2.31-12.78-3.46-19.3-3.46-9.64,0-19.23,2.51-27.78,7.44l-204.13,117.74c-16.89,9.74-36.05,14.87-55.55,14.87h-393.63c-30.67,0-55.54,24.83-55.59,55.5l-.15,91.88c5.26,57.64,37.17,109.94,86.94,140.73l33.87,20.96-.06.09,313.73,181.16c8.65,5,18.24,7.45,27.79,7.45,12.89,0,25.7-4.48,35.99-13.21l329.45-279.68c7.99-6.62,15.01-14.32,20.86-22.88l114.96-168.16c20.41-29.86,7.32-70.95-26.6-83.51Z"/>
            <path class="cls-4" d="M1379.7,946.15h303.8c33.78,0,59.75-29.88,55.05-63.33,0,0-29.04-157.18-45.25-250.98-4.9-28.36-21.06-71.62-35.94-96.25-33.78-55.93-85.31-140.87-116.29-188.25-17.24-26.36-38.72-48.05-61.99-48.05-9.29,0-18.86,3.45-28.57,11.45l-107.51,88.51c-12.9,10.62-20.34,26.49-20.26,43.2l1.38,269.01v179.1c0,30.7,24.89,55.59,55.59,55.59Z"/>
            <path class="cls-1" d="M2005.1,769.54c-.56-48.54-5.17-132.12-10.13-175.89-4.18-36.83-19.42-71.31-53.26-71.31-3.03,0-6.21.28-9.55.85l-109.13,18.86c-30.54,5.28-50.87,34.52-45.18,64.99l43.44,232.54c5.14,27.54,29.12,45.43,54.72,45.43,8.79,0,17.77-2.11,26.25-6.67l76.77-41.26c24.18-12.99,26.39-40.11,26.07-67.55Z"/>
            <path class="cls-4" d="M2160,1362.19c-12.4,0-24.88,4.13-35.22,12.6l-191.93,162.73c-29.34,24.88-25.16,71.31,8.16,90.55l67.29,38.85c7.95,4.59,16.01,6.63,24.06,6.63,16.32,0,32.57-8.37,47.71-20.75l146.82-120.23c30.39-24.58,51.43-57.7,26.55-88.21l-50.32-61.7c-10.99-13.48-26.99-20.46-43.11-20.46Z"/>
          </g>
        </g>
      </g>
    </g>
  </g>
</svg>