<?xml version="1.0" encoding="UTF-8"?>
<svg id="Camada_2" data-name="Camada 2" xmlns="http://www.w3.org/2000/svg" viewBox="0 0 7667.11 2547.79">
  <defs>
    <style>
      .cls-1 {
        fill: #ffe7d2;
      }
    </style>
  </defs>
  <g id="Camada_1-2" data-name="Camada 1">
    <g id="_1_COR" data-name="1 COR">
      <g>
        <path class="cls-1" d="M3216.75,988.83c0-192.64,113.47-285,281.04-285s279.73,92.36,279.73,286.31v6.6h-124.02v-7.91c0-120.07-63.33-168.89-155.7-168.89s-155.69,48.82-155.69,168.89v383.96h-125.35v-383.96Z"/>
        <path class="cls-1" d="M3887.01,720.98h125.35v651.81h-125.35v-651.81Z"/>
        <path class="cls-1" d="M4843.39,1046.89c0-197.92,145.14-343.06,350.97-343.06s350.98,145.14,350.98,343.06-145.14,343.06-350.98,343.06-350.97-145.14-350.97-343.06ZM5418.67,1046.89c0-131.95-89.72-226.95-224.31-226.95s-224.31,95-224.31,226.95,89.73,226.95,224.31,226.95,224.31-95,224.31-226.95Z"/>
        <path class="cls-1" d="M6961.98,1052.16c0-204.52,145.14-348.33,352.29-348.33s347.02,139.86,347.02,348.33v320.63h-114.8v-142.5c-43.54,105.56-139.86,159.65-253.34,159.65-170.2,0-331.18-122.71-331.18-337.78ZM7537.25,1046.89c0-131.95-89.72-226.95-224.31-226.95s-224.31,95-224.31,226.95,89.73,226.95,224.31,226.95,224.31-95,224.31-226.95Z"/>
        <path class="cls-1" d="M3216.75,1920.17v-340.42h125.35v340.42c0,141.18,77.84,212.43,196.59,212.43s196.61-71.26,196.61-212.43v-340.42h125.35v340.42c0,216.39-129.31,328.54-321.95,328.54s-321.94-110.84-321.94-328.54Z"/>
        <path class="cls-1" d="M3976.76,1847.6c0-192.64,113.47-285,281.04-285s279.73,92.36,279.73,286.31v6.6h-124.02v-7.91c0-120.07-63.33-168.89-155.7-168.89s-155.69,48.82-155.69,168.89v383.96h-125.35v-383.96Z"/>
        <path class="cls-1" d="M4623.25,1900.38v-605.63h125.35v399.79c47.49-84.45,137.22-131.94,242.77-131.94,170.22,0,331.19,122.71,331.19,339.09,0,204.52-145.15,347.02-352.29,347.02s-347.02-135.9-347.02-348.33ZM5195.89,1905.66c0-131.95-89.72-226.95-224.31-226.95s-222.98,95-222.98,226.95,89.72,226.95,222.98,226.95,224.31-95,224.31-226.95Z"/>
        <path class="cls-1" d="M5417.58,1910.93c0-204.52,145.14-348.33,352.29-348.33s347.02,139.86,347.02,348.33v320.63h-114.8v-142.5c-43.54,105.56-139.86,159.65-253.34,159.65-170.2,0-331.18-122.71-331.18-337.78ZM5992.86,1905.66c0-131.95-89.72-226.95-224.31-226.95s-224.31,95-224.31,226.95,89.73,226.95,224.31,226.95,224.31-95,224.31-226.95Z"/>
        <path class="cls-1" d="M6549.58,1562.6c-192.64,0-321.94,112.15-321.94,329.86v339.11h125.35v-339.11c0-141.18,77.84-213.74,196.59-213.74s196.61,72.57,196.61,213.74v617.52h125.35v-617.52c0-219.02-129.31-329.86-321.95-329.86Z"/>
        <path class="cls-1" d="M6512.28,703.83c-112.22,0-202.88,38.13-259.07,112.94-56.16-75.07-147-112.94-259.5-112.94-192.64,0-321.94,112.15-321.94,329.86v339.11h125.35v-339.11c0-141.18,77.84-213.74,196.59-213.74s196.61,72.57,196.61,213.74v339.11h125.38v-339.11c0-141.18,77.84-213.74,196.59-213.74s196.61,72.57,196.61,213.74v339.11h125.35v-339.11c0-219.02-129.31-329.86-321.95-329.86Z"/>
        <path class="cls-1" d="M6965.16,1905.66c0-197.92,145.14-343.06,350.97-343.06s350.98,145.14,350.98,343.06-145.14,343.06-350.98,343.06-350.97-145.14-350.97-343.06ZM7540.43,1905.66c0-131.95-89.72-226.95-224.31-226.95s-224.31,95-224.31,226.95,89.73,226.95,224.31,226.95,224.31-95,224.31-226.95Z"/>
        <path class="cls-1" d="M4735.4,823.91s32.69-29.34,32.69-56.32c.03-47.32-32.69-46.6-32.69-46.6h-567.38v112.15h399.8l-419.59,436.74v102.92h600.35v-112.15h-432.78l419.59-436.74Z"/>
      </g>
      <g>
        <path class="cls-1" d="M3216.16,47.18h51.88v471.28h-51.88V47.18Z"/>
        <path class="cls-1" d="M3499.37,232.38c0-118.9,70.62-194.56,198.17-194.56s197.45,75.67,197.45,194.56v286.08h-51.88V232.38c0-90.79-50.44-147-145.57-147s-146.28,56.21-146.28,147v286.08h-51.88V232.38Z"/>
        <path class="cls-1" d="M4101.12,385.87h51.16c2.16,59.81,46.12,94.4,121.07,94.4s121.07-36.75,121.07-94.4c0-61.97-59.82-72.78-123.95-82.15-76.39-10.81-158.53-25.22-158.53-125.39,0-83.59,64.86-140.52,162.14-140.52s158.53,54.05,161.41,136.2h-49.72c-2.89-54.05-43.96-88.64-111.69-88.64s-111.7,36.03-111.7,91.52c0,60.53,59.09,70.62,123.23,80.71,76.39,12.25,159.25,25.94,159.25,126.83,0,87.91-67.74,143.4-171.5,143.4s-170.06-54.05-172.22-141.96Z"/>
        <path class="cls-1" d="M4780.68,94.75h-159.98v-47.56h371.84v47.56h-159.97v423.72h-51.88V94.75Z"/>
        <path class="cls-1" d="M5206.58,47.18h51.88v471.28h-51.88V47.18Z"/>
        <path class="cls-1" d="M5631.75,94.75h-159.98v-47.56h371.84v47.56h-159.97v423.72h-51.88V94.75Z"/>
        <path class="cls-1" d="M6044.68,333.27V47.18h51.88v286.08c0,90.79,50.44,147,145.57,147s145.56-56.93,145.56-147V47.18h50.44v286.08c0,118.9-69.9,194.56-195.29,194.56s-198.17-75.67-198.17-194.56Z"/>
        <path class="cls-1" d="M6798.46,94.75h-159.98v-47.56h371.84v47.56h-159.97v423.72h-51.88V94.75Z"/>
        <path class="cls-1" d="M7162.4,282.82c0-141.24,103.77-245.01,250.77-245.01s250.77,103.77,250.77,245.01-103.77,245.01-250.77,245.01-250.77-103.77-250.77-245.01ZM7612.06,282.82c0-113.85-81.43-197.45-198.89-197.45s-198.89,83.59-198.89,197.45,81.43,197.45,198.89,197.45,198.89-83.59,198.89-197.45Z"/>
      </g>
      <path class="cls-1" d="M2468.1,1194.21c-29.85,0-55.84,16.44-69.49,40.74h-152.08l100.93-147.63c22.7-33.21,28.72-74.24,16.51-112.57-12.21-38.33-40.84-68.32-78.57-82.29l-166.34-61.56,148.32-85.63c23.97,14.22,54.69,15.47,80.55.54,38.11-22,51.17-70.74,29.17-108.85-22.01-38.11-70.74-51.17-108.85-29.17-25.85,14.93-40.13,42.16-39.81,70.02l-142.19,82.09-17.2-283.48c-2.02-33.22-32.57-57.24-65.33-51.35l-216.95,39.02c-.14.02-.28.03-.42.05l83.61-144.82c27.87.33,55.1-13.95,70.02-39.81,22-38.11,8.95-86.85-29.17-108.85-38.11-22-86.85-8.95-108.85,29.17-14.93,25.85-13.68,56.58.54,80.55l-100.13,173.42c-7.01-4.84-12.99-11.21-17.22-18.93l-130.54-238.25c-17.01-31.04-58.32-38.5-85.1-15.35l-156.7,135.41v-167.5c24.3-13.65,40.74-39.63,40.74-69.48,0-44.01-35.68-79.69-79.69-79.69s-79.68,35.68-79.68,79.69c0,29.85,16.44,55.83,40.74,69.48v199.86l-285.11-108.72c-29.75-11.34-62.93,4.57-72.71,34.87l-48.37,149.84-83.5-144.63c14.22-23.97,15.47-54.69.54-80.55-22.01-38.11-70.74-51.17-108.85-29.17-38.11,22.01-51.17,70.74-29.17,108.85,14.93,25.85,42.16,40.13,70.02,39.81l98.65,170.87-200.13-15.25c-3.31-.25-6.66-.38-9.97-.38h0c-38.23,0-74.33,16.81-99.04,46.1-24.69,29.26-35.15,67.7-28.7,105.45l22.83,133.74-142.11-82.05c.33-27.87-13.95-55.1-39.81-70.02-38.11-22.01-86.85-8.95-108.85,29.17-22,38.11-8.95,86.85,29.17,108.85,25.85,14.93,56.57,13.68,80.55-.54l171.5,99.01c-.07.05-.14.11-.21.16l-261.62,172.98c-27.77,18.36-33.29,56.83-11.8,82.25l114.3,135.28h-143.37c-13.65-24.3-39.63-40.74-69.48-40.74-44.01,0-79.69,35.68-79.69,79.69s35.68,79.68,79.69,79.68c29.85,0,55.83-16.44,69.48-40.74h196.87l1.37,2.53c9.38,17.37,8.85,38.41-1.4,55.28l-141.06,232.18c-18.38,30.25-4.18,69.75,29.26,81.37l156.75,54.49-110.56,63.84c-23.97-14.22-54.69-15.47-80.54-.54-38.12,22-51.17,70.74-29.17,108.85,22,38.11,70.74,51.17,108.85,29.17,25.86-14.93,40.13-42.16,39.81-70.02l173.22-100.01c-.93,5.75-1.01,11.69-.05,17.65l50.95,317.11c5.05,31.44,35.42,52.22,66.55,45.54l128.93-27.66-61.12,105.85c-27.87-.33-55.1,13.95-70.02,39.81-22,38.11-8.95,86.85,29.17,108.85,38.11,22,86.85,8.95,108.85-29.17,14.92-25.85,13.68-56.58-.54-80.55l90.75-157.18c2.33,6.76,4.96,13.43,8.06,19.89l88.15,183.64c21.79,45.39,66.64,73.59,117.04,73.59,30.11,0,59.49-10.62,82.74-29.91l102.94-85.43v126.61c-24.3,13.65-40.74,39.63-40.74,69.48,0,44.01,35.67,79.69,79.68,79.69s79.69-35.68,79.69-79.69c0-29.85-16.44-55.83-40.74-69.48v-165.77c.96.41,1.93.78,2.86,1.25l280.62,140.08c29.78,14.87,65.86.41,77.13-30.9l66.41-184.41,62.66,108.53c-14.22,23.97-15.47,54.69-.54,80.55,22,38.11,70.74,51.17,108.85,29.17,38.12-22.01,51.17-70.74,29.17-108.85-14.93-25.85-42.16-40.13-70.02-39.81l-86.33-149.52c6.42-6.46,14.32-11.21,22.96-13.91,20.77-.46,41.92-.96,62.58-1.52l226.66,5.06c35.39.79,62.5-31.26,55.84-66.02l-38.04-198.85,114.8,66.28c-.33,27.87,13.95,55.1,39.81,70.02,38.11,22,86.85,8.95,108.85-29.17,22.01-38.11,8.95-86.85-29.17-108.85-25.86-14.93-56.58-13.68-80.55.54l-145.58-84.05,240.33-195.5c24.7-20.09,27.51-56.78,6.16-80.41l-117.27-129.74h147.56c13.65,24.3,39.63,40.74,69.49,40.74,44.01,0,79.68-35.68,79.68-79.68s-35.68-79.69-79.68-79.69ZM1823.03,542.06l109.13-18.86c3.34-.58,6.51-.85,9.55-.85,33.83,0,49.08,34.48,53.26,71.31,4.96,43.77,9.57,127.35,10.13,175.89.31,27.45-1.9,54.56-26.07,67.55l-76.77,41.26c-8.47,4.56-17.46,6.67-26.25,6.67-25.6,0-49.57-17.89-54.72-45.43l-43.44-232.54c-5.69-30.47,14.64-59.71,45.18-64.99ZM1827.68,1016.77l204.13-117.74c8.55-4.93,18.14-7.44,27.78-7.44,6.51,0,13.05,1.14,19.3,3.46l180.8,66.92c33.92,12.55,47.01,53.65,26.6,83.51l-114.96,168.16c-5.85,8.56-12.88,16.26-20.86,22.88l-329.45,279.68c-10.29,8.73-23.1,13.21-35.99,13.21-9.55,0-19.14-2.45-27.79-7.45l-313.73-181.16.06-.09-33.87-20.95c-49.77-30.8-81.68-83.09-86.95-140.73l.15-91.88c.05-30.67,24.93-55.5,55.59-55.5h393.63c19.5,0,38.66-5.13,55.55-14.87ZM1342.99,399.25l107.52-88.51c9.71-7.99,19.28-11.45,28.57-11.45,23.28,0,44.76,21.69,61.99,48.04,30.98,47.38,82.51,132.32,116.29,188.25,14.88,24.63,31.04,67.9,35.94,96.25,16.21,93.81,45.25,250.98,45.25,250.98,4.7,33.45-21.27,63.33-55.05,63.33h-303.8c-30.7,0-55.59-24.89-55.59-55.59v-179.09l-1.38-269.01c-.09-16.71,7.35-32.58,20.26-43.2ZM904.27,452.29l28.27-74.43c8.4-22.11,25.91-30.34,46.46-30.34,13.65,0,28.64,3.63,43.2,9.23l177.53,67.04c27.31,10.34,48.12,27.27,48.12,55.09v77.7c0,31.79-26.04,55.64-55.52,55.64-6.19,0-12.53-1.05-18.82-3.3l-236.89-84.85c-28.79-10.85-43.29-43.01-32.36-71.76ZM566.36,548.69c1.44,0,2.88.05,4.34.17l203.11,15.48c10.34.79,20.52,3.02,30.24,6.63l406.93,145.47c22.12,7.91,36.88,28.86,36.88,52.35l-.02,386.39h-.73v6.54c0,64.44-33.47,124.25-88.4,157.95l-54.48,33.43.08.13-15.85,9.11c-8.73,5.02-18.26,7.41-27.66,7.41-19.22,0-37.9-9.97-48.2-27.8l-196.81-340.89c-9.75-16.89-23.77-30.92-40.66-40.67l-204.03-117.91c-14.31-8.27-24.2-22.48-26.98-38.78l-32.45-190.04c-5.84-34.21,20.67-64.95,54.69-64.96ZM295.45,1116.67c-26.35-31.62-2.87-65.61,29.61-89.62,35.42-26.18,105.5-71.96,147.26-96.71,15.94-9.45,32.33-17.83,48.48-17.83,7.77,0,15.48,1.94,23.07,6.63l74.11,45.85c32.01,19.8,35.5,65.02,6.92,89.5l-179.67,153.89c-10.49,8.98-23.35,13.37-36.14,13.37-15.92,0-31.73-6.8-42.73-20l-70.9-85.08ZM530.23,1684.83c-8.61,5.03-18.3,7.59-28.04,7.59-6.58,0-13.19-1.17-19.5-3.53l-130.41-48.85c-41.27-15.46-33.47-57.4-13.59-96.73,25.54-50.52,73.34-137.61,104.88-194.83,13.89-25.2,43.28-60.83,65.39-79.25,73.13-60.94,194.73-164.68,194.73-164.68,10.22-7.99,22.25-11.79,34.15-11.79,19.08,0,37.82,9.79,48.22,27.8l151.9,263.09c15.35,26.59,6.24,60.59-20.35,75.94l-155.1,89.55-232.28,135.7ZM748.63,2041.08l-78.59,12.73c-3.09.5-6.05.74-8.88.74-32.8,0-48.63-32.3-54.24-67.84l-30.71-187.27c-4.7-28.82-.44-55.31,23.65-69.22l67.29-38.85c8.88-5.12,18.39-7.49,27.71-7.49,25.64,0,49.75,17.94,54.79,45.71l44.96,247.58c5,30.35-15.6,58.99-45.97,63.91ZM1268.11,1843.33c-9.75,16.89-14.89,36.05-14.9,55.55l-.1,235.65c0,16.53-7.37,32.2-20.09,42.76l-148.36,123.12c-10.49,8.71-23.03,12.83-35.4,12.83-20.45,0-40.47-11.23-50.22-31.55l-88.15-183.64c-4.49-9.35-7.65-19.28-9.38-29.51l-77.48-425.15c-4.21-23.11,6.56-46.37,26.9-58.11l342.85-197.92c56.35-31.88,125.28-32.07,181.8-.4l23.05,12.91,46.03,26.68c26.53,15.38,35.6,49.34,20.27,75.89l-196.82,340.89ZM1666.65,2132.21l-38.23,103.94c-8.18,22.22-25.27,30.56-45.37,30.56-14.84,0-31.32-4.54-47.05-11.39-40.38-17.58-115.07-55.39-157.39-79.17-23.93-13.45-46.3-28.92-45.46-56.36l2.65-87.11c.94-31.06,26.61-53.94,55.5-53.94,6.1,0,12.36,1.02,18.55,3.2l223.11,78.65c29.23,10.31,44.39,42.53,33.69,71.62ZM1976.27,1985.38c-56.52,3.14-155.85,5.29-221.17,6.59-1.01.02-2.04.03-3.1.03-28.86,0-72.17-7.45-98.23-17.03-89.34-32.87-239.98-86.3-239.98-86.3-31.32-12.66-44.21-50.09-27.32-79.34l151.9-263.1c10.3-17.84,28.98-27.8,48.2-27.8,9.43,0,18.99,2.4,27.74,7.46l155.1,89.55,233.66,133.31c14.52,8.28,24.54,22.66,27.29,39.15l22.9,137.37c7.25,43.47-32.97,57.69-76.98,60.13ZM2253.44,1444.35c24.88,30.51,3.84,63.63-26.55,88.21l-146.82,120.23c-15.14,12.38-31.39,20.75-47.71,20.75-8.04,0-16.1-2.03-24.06-6.63l-67.29-38.85c-33.31-19.23-37.49-65.67-8.16-90.55l191.93-162.73c10.34-8.48,22.82-12.6,35.22-12.6,16.13,0,32.12,6.98,43.11,20.46l50.32,61.7Z"/>
    </g>
  </g>
</svg>