<?xml version="1.0" encoding="UTF-8"?>
<svg id="Camada_2" data-name="Camada 2" xmlns="http://www.w3.org/2000/svg" viewBox="0 0 678.08 1225.18">
  <defs>
    <style>
      .cls-1 {
        fill: #ffe7d2;
      }
    </style>
  </defs>
  <g id="Camada_1-2" data-name="Camada 1">
    <g id="ygmyND.tif">
      <g>
        <path class="cls-1" d="M346.05,0c3.42,4.82,6.43,6.39,7.3,13.03,2.41,18.38,2.08,74.71-.09,93.48-2.42,20.86-26.32,20.87-28.75,0-2.18-18.71-2.5-75.15-.09-93.48.87-6.64,3.88-8.21,7.3-13.03h14.33Z"/>
        <path class="cls-1" d="M678.08,114.84v11.96l-51.32,86.15c-13.9,12.07-28.4-3.45-21.4-19.04,10.01-12.06,43.11-82.81,52.92-85.77,9.16-2.76,13.37,1.32,19.8,6.7Z"/>
        <path class="cls-1" d="M178.17,26.74c15.05-4.42,18.14,12.45,21.49,22.99,5.31,16.71,18.68,60.48,19.85,75.89,1.78,23.55-19.38,28.78-28.11,6.55-10.5-26.75-13.58-63.06-23.85-90.76-.08-5.02,6.12-13.35,10.62-14.67Z"/>
        <path class="cls-1" d="M491.09,26.74c9.91-2.89,17.71,5.41,19.12,14.67l-24.42,92.57c-11.25,20.57-30.33,13.51-27.28-10.57,1.65-13.04,18.2-75.42,23.58-86.44,1.9-3.9,4.55-8.93,9-10.23Z"/>
        <path class="cls-1" d="M8.56,108.15c3.52-1.05,7.4-1.07,10.92,0,9.79,2.94,42.93,73.73,52.92,85.77,7.36,17.91-10.23,32.4-23.65,16.53-8.27-9.79-41.34-67.7-46.43-80.27-3.42-8.46-4.34-18.86,6.23-22.01Z"/>
        <g>
          <path class="cls-1" d="M541.92,959.37h41.8c.98,0,8.36,9.52,8.36,10.77v75.36c16.81.68,35.93-5.79,40.47,15.69-4.89,45.44,7.08,106.98,0,150.45-1.34,8.22-6.4,14.46-15.25,13.44l-563.41-.6c-6.11-2.82-8.15-8.74-8.88-15.03-5.3-45.68,3.95-101.46.19-148.25,4.54-21.48,23.66-15.01,40.47-15.69v-75.36c0-1.25,7.38-10.77,8.36-10.77h37.02c-26.58-80.07-73.97-154.73-87.69-238.74-6.49-39.76-9.34-85.93-7.96-126.2.6-17.56,6.59-45.9,4.96-62.14-.81-8.09-6.58-16.67-8.52-25.01-6.69-28.78-1.68-54.99,9-82.05,20.02-50.67,58.56-76.71,114.08-63.98-1.05-50.51,32.55-103.23,85.48-109.37,25.94-3.01,47.47,5.08,71.96,11.12,29.26-75.6,142.04-90.06,187.8-21.35,23.25-19.39,40.6-25.43,70.89-18.43,34.11,7.89,73.89,29.75,86.68,63.91,14.33,38.27,1.75,125.25-8.51,166.07-3.07,12.23-15.09,39.66-15.77,48.32-2.77,35.55,15.36,96.14,15.91,136.09,1.44,103.55-107.46,185.9-107.46,279.89v41.87ZM474.93,308.5c.69-25.18,16.3-30.89-.3-53.3-43.98-59.37-146.38-22.84-142.9,51.02l143.19,2.28ZM503.7,306.23h39.41c1.11,0,12.36,5.47,14.77,6.73,40.1,21.05,51.86,90.02,64.05,129.66,4.41-.04,12.89-80.13,13.24-87.25,2.55-52.59-.67-78-52.69-98.15-51.31-19.88-66.41.2-78.79,49ZM305.27,315.57c-4.27-6.67-.55-16.14-2.53-22.18-1.72-5.25-34.56-12.89-41.52-13.43-66.29-5.07-87.01,60.84-72.15,115.31,10.81,39.64,31.77,97.79,49.08,135.06,11.64,25.07,16.08,38.42,47.02,41.42,12.07,1.17,60.57-5.39,60.91-20.19.07-2.98-18.17-45.31-20.85-55.82-4.11-16.13-4.24-38.23-8.36-51.44-.99-3.17-20.62-22.68-25.31-29.68-22.82-34.03-28.87-78.76,13.71-99.06ZM513.26,959.37c-4.17-60.65,16.79-117.15,44.14-169.91,37.64-72.61,68.18-86.9,60.94-178.17-4.48-56.54-26.5-226.96-64.51-265.55-18.85-19.14-45-8.67-67.95-8.3-42.07.66-81.03-4.11-121.81-5-56.37-1.23-82.83,24.45-42.91,74.08,31.23,38.82,78.44,47.86,125.7,40.17,17.41-2.83,69.56-28.25,66.57,1.94-1.46,14.72-26.24,16.43-38.16,20.52-5.12,13.94,9.92,49.58-.34,58.3-6.29,5.35-34.63,4.29-45.88,6.66-83.11,17.55-89.18,118.23-87.89,187.3.17,9.19,6.73,28.75-.52,36.37-5.41,5.69-17.26,5.64-22.65,0-5.91-6.19-6.14-70.05-5.49-82.02,1.44-26.61,6.88-54.54,14.42-80.04-23.38,7.69-47.43,6.22-70.58-1.72-20.53,41.29-70.36,59.53-112.61,40.45-25.89-11.7-43.65-41.61-62.78-61.53-1.91-1.99-12.09-13.38-14.38-10.69-5.92,76.3-1.89,153.27,24.47,225.48,20.95,57.39,52.88,112.17,68.68,171.66h353.53ZM113.72,388.14c-42.61,7.22-64.87,83.46-51.43,119.75,7.79,21.03,24.41,28.86,37.78,43.5,17.28,18.94,41.94,57.2,68.23,60.86,19.35,2.69,40.93-1.49,53.53-17.74,16.35-21.09,2.14-25.97-6.82-45.79-22.27-49.27-37.19-101.7-55.55-152.5-6.79-9.73-34.79-9.94-45.74-8.08ZM446.38,476.08c-34.21,5.64-66.15,1.09-97.93-11.94,2.46,23.37,10.84,45.32,19.13,66.97,25.58-15.6,50.72-26.78,81.19-28.72l-2.4-26.31ZM563.42,988.07H114.34v57.42h449.07v-57.42ZM73.74,1074.2v122.01h530.29v-122.01H73.74Z"/>
          <path class="cls-1" d="M568.61,1135.81c0,26.24-21.24,47.51-47.44,47.51s-47.44-21.27-47.44-47.51,21.24-47.51,47.44-47.51,47.44,21.27,47.44,47.51ZM539.84,1135.85c0-10.41-8.43-18.85-18.82-18.85s-18.82,8.44-18.82,18.85,8.43,18.85,18.82,18.85,18.82-8.44,18.82-18.85Z"/>
        </g>
      </g>
    </g>
  </g>
</svg>