<?xml version="1.0" encoding="UTF-8"?>
<svg id="Camada_2" data-name="Camada 2" xmlns="http://www.w3.org/2000/svg" viewBox="0 0 877.82 961.21">
  <defs>
    <style>
      .cls-1 {
        fill: #ffe7d2;
      }
    </style>
  </defs>
  <g id="Camada_1-2" data-name="Camada 1">
    <g id="tUVvEH.tif">
      <g>
        <path class="cls-1" d="M877.37,503.24c.6,17.19.6,36.29,0,53.48-1.04,29.63-2.67,67.28-9.1,96.8-8.84,40.57-84.58,99.14-116.08,129.92-6.64,6.49-35.58,33.69-37.34,39.68-1.63,5.52,9.69,2.59,13.68,3.35,8.46,1.61,16.67,4.19,18.24,13.84,3.09,18.94,2.1,80.04.23,100.53-1.23,13.48-7.39,16.95-20.31,18.19-72.25,6.96-155.58-5.47-229.02-.06-8.58-.47-15.25-6.61-17.21-14.88-2.89-12.19-2.8-88.03-.42-101.26,3.95-21.95,27.22-14.38,29.45-16.54,3.65-3.52-1.82-86.41.17-101.45,7.89-59.77,79.95-112.12,138.82-111.46,24.49-19.21,51.25-55.47,78.33-69.27,5.26-2.68,12.85-2.23,16.83-6.7,2.66-2.99,14.54-33.47,14.9-38.13.77-10.08-6.29-24.39-7.33-35.67-2.98-32.56,7.29-66.32,28.81-90.91,20.59-23.53,69.42-53.85,81.78-6.87,9.55,36.29,14.26,99.85,15.57,137.39ZM543.7,733.22c-3.96,27.79,2.94,64.29,0,93.06h134.75l5.35-21.39c36.65-50.77,99.18-89.88,138-137.95,14.54-18,15.22-47.64,17.04-70.67,3.95-49.92,2.96-104.21-2.14-153.99-2.08-20.35-6.13-40.69-8.55-60.98-30.96,13.97-44.23,49.82-40.65,82.37.88,7.97,5.25,15.68,6.2,23.75,2.64,22.34-5.39,38.08-14.43,57.58,31.83,21.54,28.1,55.63,6.04,83.32-23.28,29.22-54.31,57.2-79.17,85.53-14.76,10.74-34.29-7.85-25.27-23.14,22.22-30.98,56.62-57.86,78.82-88.02,8.69-11.81,11.3-27.87-7.86-28.17-24.04-.39-66.98,68.78-102.83,75.77-11.99,2.34-21.76,1.79-34.66,5.98-30.17,9.81-66.07,44.59-70.67,76.93ZM515.89,862.65v59.9h196.78v-59.9h-196.78Z"/>
        <path class="cls-1" d="M368.3,826.29c2.62,2.53,26.31-6.14,29.76,18.37,2.64,18.74,2.37,74.71.19,93.94-1.49,13.17-7.03,19.22-20.22,20.43-71.97,6.61-153.89-5.24-226.93,0-13.01-1.25-19.08-4.78-20.31-18.19-2.92-31.83,2.26-68.19.23-100.53,1.89-8.11,8.11-12.6,16.06-13.89,4.19-.68,17.51,2.28,15.87-3.3-1.78-6.06-32.61-35.1-39.48-41.82-31.35-30.65-105.02-87.24-113.95-127.78-15-68.08-10.08-177.82-.24-247.32,5.33-37.64,8.96-85.38,60.23-56.57,40.36,22.68,61.68,70.36,56.84,115.9-1.06,9.98-7.81,23.73-7.56,32.02.14,4.64,12.59,36.75,15.36,39.87,3.98,4.47,11.58,4.02,16.83,6.7,27.08,13.8,53.84,50.06,78.33,69.27,58.92-.69,130.91,51.57,138.82,111.46,1.99,15.04-3.48,97.93.17,101.45ZM334.09,826.28v-93.06c0-15.39-23.52-46.51-35.36-56.63-25.38-21.71-39.78-20.41-69.97-26.28-37.05-7.2-63.27-59.57-93.59-73.28-20.54-9.29-30.84,7.02-17.1,25.69,22.11,30.03,56.75,57.02,78.82,88.02,9.03,15.29-10.5,33.87-25.27,23.14-24.86-28.33-55.89-56.31-79.17-85.53-22.06-27.69-25.79-61.78,6.04-83.32-9.04-19.5-17.07-35.25-14.43-57.58.95-8.07,5.33-15.77,6.2-23.75,3.58-32.55-9.68-68.4-40.65-82.37-2.61,20.29-6.52,40.59-8.55,60.98-4.97,49.93-6.09,103.94-2.14,153.99,1.84,23.28,2.25,52.35,17.04,70.67,35.26,43.66,94.89,81.98,129.48,125.08,7.85,9.79,13.42,21.38,13.88,34.25h134.75ZM361.89,862.65h-196.78v59.9h196.78v-59.9Z"/>
        <g>
          <path class="cls-1" d="M340.5,547.1c-2.38,11.03-20.37,19.48-30.93,20.41-20.12,1.78-68.25,2.35-87.59-.28-13.81-1.88-25.74-12.48-27.03-26.45-4.25-46.13,3.42-98.69.05-145.53-7.55-12.69-21.13-20.79-23.29-36.61-3.29-24.04-2.68-90.45-.16-115.31,1.64-16.15,12.33-32.76,27.84-38.47,18.79-6.93,96.38-4.22,120.89-3.38,3.09.11,11.21,2.67,11.63,2.26.33-.33.8-5.6,2.88-8.89,10.63-16.79,26.06-21.98,45.17-23.3,25.74-1.78,117.5-3.38,138.04,3.33,10.08,3.29,19.31,11.04,24.97,19.98,2.08,3.29,2.55,8.57,2.88,8.89.42.41,8.54-2.15,11.63-2.26,23.58-.81,103.48-3.42,120.92,3.34,16.38,6.35,26.38,23.59,27.92,40.53,2.43,26.72,2.74,84.97-.08,111.34-1.87,17.45-15.01,24.94-23.49,38.55-3.37,46.84,4.3,99.4.05,145.53-1.29,13.98-13.21,24.57-27.03,26.45-19.34,2.63-67.47,2.05-87.59.28-9.13-.81-30.93-10.72-30.93-20.41v-154.03c0-5.85-10.8-6.02-12.79,4.33-3.7,56.06,4.75,117.97.03,173.32-1.49,17.46-10.62,32.42-29.14,35.04-15.47,2.19-105.67,2.36-118.15-1.25-10.8-3.12-21.58-14.61-23.38-25.82l-1.62-184.49c-3.5-7.67-11.72-5.63-11.72-1.12v154.03ZM488.09,569.56v-180.78c0-11.93,22.86-28.52,27.76-38.56-2.68-39.97,3.73-84.77.15-124.14-1-10.95-4.59-16.78-16.1-18.13-27.18-3.19-92.06-2.55-119.93-.05-9.33.84-16.34,3.85-17.95,14.13-5.8,37.04,4.15,87.66-.24,126.21,1.45,10.88,27.92,26.89,27.92,40.54v180.78h98.39ZM306.28,531.05v-150.82c0-7.43,19.14-20.32,21.34-27.86l-1.01-110.14c-1.98-3.56-4.82-3.9-8.47-4.37-20.56-2.65-77.38-2.12-98.61-.03-6.02.59-10.21.4-11.58,7.67l1.05,110.08c4.25,4.78,20.28,18.92,20.28,24.64v150.82h77ZM648.51,531.05v-150.82c0-7.43,19.14-20.32,21.34-27.86l-1.01-110.14c-1.98-3.56-4.82-3.9-8.47-4.37-20.56-2.65-77.38-2.12-98.61-.03-6.02.59-10.21.4-11.58,7.67l1.05,110.08c4.25,4.78,20.28,18.92,20.28,24.64v150.82h77Z"/>
          <g>
            <path class="cls-1" d="M449.59.49c89.72,12.18,82.77,150.73-9.64,152.06-94.06,1.36-102.55-139.74-11.75-152.06,4.86-.66,16.53-.66,21.39,0ZM478.32,76.39c0-21.78-17.65-39.44-39.43-39.44s-39.43,17.66-39.43,39.44,17.65,39.44,39.43,39.44,39.43-17.66,39.43-39.44Z"/>
            <path class="cls-1" d="M333.37,119.07c0,36.23-29.36,65.6-65.59,65.6s-65.59-29.37-65.59-65.6,29.36-65.6,65.59-65.6,65.59,29.37,65.59,65.6ZM297.25,119.11c0-16.36-13.26-29.62-29.61-29.62s-29.61,13.26-29.61,29.62,13.26,29.62,29.61,29.62,29.61-13.26,29.61-29.62Z"/>
            <path class="cls-1" d="M675.59,119.07c0,36.23-29.36,65.6-65.59,65.6s-65.59-29.37-65.59-65.6,29.36-65.6,65.59-65.6,65.59,29.37,65.59,65.6ZM639.47,119.11c0-16.36-13.26-29.62-29.61-29.62s-29.61,13.26-29.61,29.62,13.26,29.62,29.61,29.62,29.61-13.26,29.61-29.62Z"/>
          </g>
        </g>
      </g>
    </g>
  </g>
</svg>