<?xml version="1.0" encoding="UTF-8"?>
<svg id="Camada_2" data-name="Camada 2" xmlns="http://www.w3.org/2000/svg" viewBox="0 0 1073.84 907.2">
  <defs>
    <style>
      .cls-1 {
        fill: #ffe7d2;
      }
    </style>
  </defs>
  <g id="Camada_1-2" data-name="Camada 1">
    <g>
      <path class="cls-1" d="M535.85,756.94c-207.72,1.72-378.27-168.09-378.44-376.75C157.24,170.13,324.14.24,536,0c213.48-.24,379.17,171.21,378.93,379.57-.24,210.83-171.68,379.15-379.08,377.37ZM533.66,43.65c0-5.66.02-11.32,0-16.98-.07-19.79-2.4-23.17-21.5-20.06-31,5.04-62.3,10-92.35,18.83-50.28,14.79-94.28,41.96-133.62,76.57-10.81,9.51-10.84,11.44-.35,21.97,10.55,10.6,21.27,21.04,31.7,31.76,5.62,5.78,10.42,5.82,16.57.34,48.19-42.86,103.95-68.83,168.41-76.12,31.24-3.53,31.15-4.34,31.15-36.32ZM533.64,716.53c0-7.29-.37-14.6.08-21.86.73-11.64-4.65-16.1-15.91-15.67-6.42.25-12.94-.47-19.33-1.39-61.66-8.87-116.63-32.64-163.13-74.57-7.53-6.79-12.75-6.26-19.33.71-10.56,11.18-21.39,22.13-32.62,32.63-7.3,6.82-5.96,11.76.88,17.85,66.86,59.55,145.24,91.2,234.22,97.62,10.07.73,15.51-2.7,15.15-13.46-.24-7.28-.05-14.57-.01-21.86ZM871.85,380.38c-5.66,0-11.35.37-16.98-.08-11.91-.96-17.24,3.28-18.21,16.17-5.33,70.81-30.25,133.6-78.91,186.15-4.53,4.89-4.41,8.93.24,13.52,12.38,12.21,24.62,24.57,36.91,36.87,5.02,5.02,9.87,4.99,14.39-.64,11.64-14.49,24.29-28.29,34.69-43.63,38.02-56.1,59.59-118.09,63.9-185.89,1.25-19.57-1.31-22.21-21.48-22.46-4.85-.06-9.71,0-14.56-.01ZM199.57,375.61c4.04,0,8.09,0,12.13,0,22.57-.01,23.26.04,25.04-21.83,5.56-68.23,31.76-127.33,77.5-177.92,4.88-5.39,4.72-9.52-.32-14.45-12.15-11.88-24.12-23.93-36.08-35.99-5.46-5.5-10.03-5.05-15.29.7-59.65,65.1-91.84,141.89-98.09,229.74-1.29,18.07.43,19.65,18.12,19.75,5.66.03,11.33,0,16.99,0ZM537.87,715.02c.27.02.54.04.8.06,0,2.83-.03,5.67,0,8.5.27,24.85-4.32,30.03,28.19,26.81,85.19-8.42,159-41.21,222.67-97.88,5.14-4.57,6.58-8.84,1.12-14.21-12.4-12.21-24.3-24.96-37.22-36.57-2.67-2.4-10.42-2.88-13.27-.78-25.03,18.49-49.39,37.87-74.16,56.72-7.01,5.34-14.43,10.29-22.18,14.46-3.17,1.71-9.41,2.68-11.33.87-8.27-7.76-16.56-3.73-25.12-1.96-12.28,2.54-24.6,4.84-36.92,7.18-9.99,1.9-23.87.42-28.96,6.43-5.5,6.5-2.78,19.94-3.65,30.35ZM872.6,375.51c8.1,0,16.19-.05,24.28.02,7.49.06,11.51-3.41,11.07-11.04-.49-8.47-1.23-16.93-2.03-25.38-7.7-81.98-41.04-152.37-96.13-212.98-5.24-5.77-9.83-6.25-15.29-.72-9.4,9.5-18.93,18.85-28.36,28.32-13.58,13.63-12.69,14.57.63,28.93,15.56,16.76,29.69,34.89,43.99,52.78,2.17,2.72,2.26,7.33,2.74,11.13.78,6.14.28,12.54,1.72,18.49,6.16,25.52,14.46,50.63,18.9,76.42,5.84,33.91,4.59,34.12,38.47,34.02ZM754.2,156.08c10.38-10.32,21.19-21.01,31.94-31.76,10.95-10.95,10.98-13.02-.61-22.78-32.96-27.78-68.3-51.54-108.66-67.72-37.93-15.21-77.04-24.42-117.65-27.54-17.95-1.38-20.41.95-20.53,17.78-.1,13.76.14,27.52-.04,41.27-.12,8.9,3.47,13.28,12.84,13.64,40.13,1.52,78.26,11.14,114.7,28.18,5.73,2.68,13.84,3.6,19.8,1.82,12.91-3.85,23.59-.62,32.3,7.9,12.14,11.88,23.04,25.01,35.92,39.2ZM205.45,464.27c.05,1.1.09,2.2.14,3.29,3.56,1.48,8.93,5.21,10.36,4.06,6.72-5.44,12.92-4.61,20.38-2.15,6.43,2.12,12.36,1.58,10.52-8.51-4.15-22.65-8.03-45.36-11.53-68.13-1.07-6.96-3.59-11.86-10.99-11.97-16.17-.24-32.36-.23-48.52.18-7.6.19-12,4.51-11.47,12.56.6,9.27,1.19,18.56,2.17,27.79,8.56,80.91,41.94,150.48,96.1,210.61,5.26,5.84,9.9,6.07,15.31.61,12.25-12.36,24.85-24.4,36.62-37.19,2.08-2.26,2.68-9.26.89-11.13-8.22-8.6-17.07-16.77-26.58-23.91-8.11-6.09-17.55-10.38-26.16-15.85-2.23-1.42-3.42-4.4-5.29-6.48-4.74-5.25-8.93-11.35-14.59-15.34-7.44-5.24-15.09-9.84-24.3-13.09-9.89-3.49-14.65-7.88-15.21,7.39-14.2-21.4-12.65-46.7,2.16-52.74ZM533.52,117.15c0-7.28.07-14.57-.02-21.85-.1-8.15-4.03-11.23-12.37-10.73-69.08,4.2-129.71,28.74-181.83,74.43-6.52,5.71-8.18,10.45-1.5,16.94,10.44,10.16,20.73,20.48,30.87,30.93,5.78,5.96,10.74,5.37,16.6-.11,33.66-31.51,74.43-47.88,119.31-55.16,29.07-4.72,29.08-4.62,28.93-34.46ZM272.98,375.59c6.07,0,12.17-.4,18.2.09,10.23.83,14.88-3.62,15.42-13.75.39-7.25,1.51-14.49,2.82-21.64,7.86-42.77,26.21-80.63,54.43-113.58,5.45-6.37,5.34-10.57-.67-16.19-10.63-9.94-20.78-20.42-31-30.8-4.97-5.05-9.02-5.33-14.11.33-44.01,48.89-68.38,106.46-75.65,171.45-2.56,22.84-.88,24.09,22.06,24.11,2.83,0,5.66,0,8.5-.02ZM744.83,581.93c1.39.75,2.79,1.51,4.18,2.26,4.53-5.51,9.32-10.83,13.53-16.57,9.56-13.06,19.91-25.7,28.01-39.63,23.54-40.5,36.93-84.29,39.83-131.21.66-10.74-3.87-16.09-14.5-16.15-12.14-.07-24.28-.13-36.41.21-7.87.22-12.2,4.05-13.37,12.58-2.15,15.6-4.29,31.36-8.47,46.49-9.04,32.76-24.42,62.4-46.67,88.42-3.26,3.81-6.18,11.28-4.59,15.15,3.11,7.58,9.51,13.8,14.55,20.59,1.2-1.39,2.39-2.78,3.59-4.18,3.32-2.39,6.63-4.79,9.95-7.18,2.03,4.1,4.51,8.05,5.99,12.34,1.89,5.48,2.97,11.24,4.39,16.88ZM400.81,565.23c-4.55,6.24-6.58,11.93-10.39,13.64-7.48,3.37-15.87,5.02-24.05,6.43-5.86,1.01-11.98.53-17.98.6-4.52.06-9.04-.05-13.56-.09,2.14,4.65,3.01,11.11,6.63,13.65,22.42,15.73,44.55,32.23,68.5,45.31,33.4,18.23,70.35,25.94,108.18,29.32,10.8.97,15.92-3.11,15.59-14.28-.38-12.94-.13-25.89-.16-38.84-.01-6.92-2.49-11.72-10.2-12.47-4.42-.43-8.78-1.58-13.2-1.91-36.85-2.79-69.84-16.23-100.55-36.11-3.61-2.34-7.39-4.41-8.79-5.24ZM691.05,175.88c-1.4-5.53-2.86-10.48-3.89-15.52-5.62-27.41-18.79-49.73-47.04-57.24-28.77-7.64-58.33-12.44-87.68-17.7-11.85-2.12-15.99,3.92-12.63,15.76.93,3.27,1.91,6.78,1.67,10.09-.54,7.55-2.04,15.03-2.76,22.58-.97,10.26,3.31,14.34,14.18,16.33,24.14,4.43,47.82,11.32,71.72,17.08,8.12,1.96,16.32,3.54,25.19,5.44-.04,6.87,9.3,15.43,26.31,20.35-3.22-7.06-6.12-13.44-9.03-19.82,6.51,1.78,9.84,5.66,14.05,7.41,9.25,3.84,14.4,9.31,13.99,20.06-.28,7.49,4.86,7.58,9.85,4.1,3.27-2.29,6.95-5.02,8.52-8.44,1.96-4.28,4.2-11.02,2.23-13.89-2.85-4.17-9.16-6.43-14.42-8.29-2.57-.91-6.1.91-10.25,1.7ZM533.44,191.41c0-8.89.16-17.78-.05-26.66-.16-6.9-3.8-10.31-10.92-9.7-50.66,4.41-95.42,22.93-134.15,55.97-5.76,4.91-6.6,9.24-.64,14.93,11.98,11.44,23.69,23.18,35.11,35.17,5.94,6.24,10.46,6.51,17.26.63,18-15.58,38.91-26.06,62.18-31.29,31.4-7.06,31.44-6.88,31.21-39.06ZM549.95,154.99c-6.97-1.38-10.17,3.91-10.39,11.23-.52,16.94-1.09,33.93-.13,50.81.21,3.61,6.55,9.41,10.56,9.86,31.51,3.51,59.22,15.4,83.41,35.59,5.89,4.92,10.41,4.51,15.6-.88,10.65-11.05,21.27-22.16,32.57-32.51,8.58-7.86,7.23-13.37-1.05-20.45-37.19-31.78-80.46-48.49-130.58-53.65ZM798.22,375.58c5.26,0,10.52.05,15.77-.01,15.11-.18,16.77-1.6,16.22-16.9-1.11-30.69-9.22-59.88-20.42-88.23-1.3-3.3-5.79-5.66-9.24-7.71-5.53-3.3-11.97-5.27-17.07-9.08-9.25-6.92-16.71-17.51-26.91-21.57-12.6-5.01-16.38-19.75-31.19-22.69-6.13-1.22-9.91-5.47-15.51.51-6.17,6.58-4.34,11.81,1.11,17.83,9.05,10.02,17.55,20.56,26.04,31.07,1.04,1.29.32,3.85.89,5.68,1.05,3.36,2.35,6.65,3.71,9.9,9.17,21.8,22.56,42.11,22.62,67.07.08,34.14.23,34.13,33.96,34.13ZM512.48,379.77c3.25,3.78,5.51,7.91,8.99,10.15,7.5,4.83,7.22,9.78,3.89,17.41-4.91,11.24-11.66,17.46-24.53,17.51-3.77.02-7.52,4.91-11.28,7.57,2.46,3.35,4.22,8.06,7.53,9.76,7.81,4.02,16.13,7.56,24.65,9.59,17.46,4.16,20.25,1.57,27.53-14.65,2.64-5.89,8.41-12.59,14.19-14.43,15.8-5.04,19.7-11.44,15.34-28.07-3.18-12.14-8.63-23.39-7.56-37.16,1.27-16.37-13.43-22.93-25.95-29.39-5.51-2.84-11.22-5.28-17.26-8.1,3.38-4.63,5.57-7.63,8.13-11.14-7.75-4.76-17.13-5.78-15.71,3.4,2.51,16.22-5.39,21.34-17.41,26.9-4.61,2.13-10.36,9.27-9.92,13.55,1.69,16.58-4.3,27.45-17.05,28.22-2.37-3.29-6.45-5.52-10.67-5.82-1.2-.09-4.57,5.93-3.91,8.31,3.23,11.65,7.13,23.16,11.56,34.41,1.45,3.69,5.21,6.47,8.5,10.37,10.73-16.79,20.5-32.06,30.93-48.37ZM332.3,375.61c12.06,2.85,18.42-5.06,21.48-16.98,4.06-15.82,11.32-28.25,29.11-31.45,2.84-.51,5.97-2.87,7.76-5.27,9.81-13.17,18.95-26.84,28.94-39.86,4.65-6.06,4.44-10.59-.84-15.76-10.68-10.47-21.11-21.18-31.71-31.72-10.9-10.85-13.24-11.02-22.68.85-28.31,35.57-46.37,75.6-51.28,121.12-1.79,16.61.54,19.08,19.22,19.07ZM341.01,381.67c-10.12,1.49-21.58-.03-25.02,4.52-3.93,5.19-2.06,16.11-.2,23.94,1.78,7.5,8.02,11.49,16.88,10.14,2.28-.35,6,2.15,7.52,4.39,11.13,16.43,17.42,34.2,18.53,54.51.84,15.33,5.04,30.65,9.25,45.56,2.13,7.56,8.37,9.54,14.93,2.93,11.98-12.07,24.4-23.74,35.76-36.36,2.56-2.84,3.78-10.83,1.77-13.22-15.69-18.73-26.21-39.79-32.12-63.37-.56-2.23-2.95-3.98-3.56-6.21-1.1-4.03-1.2-8.34-2.28-12.37-1.17-4.37-1.8-10.85-4.76-12.42-9.58-5.06-23.31.08-29.97,9.07-1.75,2.35-4.89,3.67-9.84,7.21,1.2-7.04,1.79-10.49,3.13-18.31ZM531.32,601.24c.11-2.11.23-4.21.34-6.32-7.98-2.02-15.89-4.43-23.96-5.97-15.79-3.01-20.25-17.26-25.46-28.59-2.09-4.55,5.44-15.01,10.59-21.08,8.15-9.59,7.78-10.83-3.99-16.62-17.26-8.49-34.16-17.83-50.51-27.96-6.33-3.92-9.94-3.28-14.56,1.44-11.33,11.55-22.7,23.08-34.35,34.31-6.91,6.66-6.19,11.5.99,17.84,35.24,31.1,76.64,47.57,122.85,52.86,5.94.68,12.03.09,18.05.09ZM712.56,375.52c12.55,0,24.29.34,36.01-.1,10.41-.39,13.68-7.25,8.85-16.56-1.68-3.23-3.62-7.32-3.03-10.58,4.12-22.83-7.29-50.71-25.91-63.43-2.22-1.52-4.1-8.13-3.1-9.03,6.49-5.87,3.23-11.01-.34-16.02-6.79-9.52-13.87-18.83-20.93-28.16-4.63-6.12-9.52-6.55-15.1-.84-11.58,11.85-23.54,23.35-34.99,35.33-2.21,2.31-4.81,7.42-3.77,9.12,5,8.18,9.64,19.43,17.29,22.55,16.07,6.56,27.43,17.27,37.45,31.15,3.44-2.46,5.77-4.9,8.62-5.97,3.14-1.18,8.24-2.69,9.8-1.21,2.27,2.14,2.45,6.79,2.88,10.45.22,1.85-1.05,3.85-1.53,5.81-2.16,8.8,1.61,11.31,9.73,9.05,1.87-.52,3.7-1.18,5.55-1.77.65.95,1.31,1.91,1.96,2.86-16.11,1.08-24.74,9.95-29.43,27.34ZM733.07,426.56c-8.54,2.62-17.32,4.7-25.61,8.02-9.07,3.62-18.83,6.97-26.19,13-8.78,7.19-15.35,17.08-22.81,25.85-1.82,2.14-3.41,4.47-6.01,7.92,10.53,2.22,15.78-1.41,20.1-8.11,1.22-1.89,4.82-3.97,6.49-3.41,2.02.67,4.6,4.19,4.39,6.21-.87,8.37-2.7,16.64-4.18,24.95-.78,4.35-1.56,8.7-2.78,15.53,5.62-3.15,8.47-4.75,11.86-6.65,3.03,7.57,5.68,14.17,9.05,22.6,4.16-3.97,7.69-6.52,10.16-9.86,6.98-9.43,13.95-18.92,20.18-28.85,17.96-28.64,28-60.14,31.36-93.61.6-5.94-2.23-17.14-5.1-17.7-15.87-3.12-32.31-4.61-50.55,2.59,9.99,13.99,18.83,26.37,29.65,41.51ZM533.67,265.45s-.08,0-.13,0c0-7.27.03-14.55,0-21.82-.04-6.78-2.62-10.47-10.28-9.87-30.42,2.36-57.26,12.84-80.04,33.51-5.63,5.1-5.39,8.93-.21,13.93,9.89,9.54,19.74,19.14,29.08,29.2,6.65,7.16,12.76,6.7,20.1,1.33,5.1-3.73,10.63-8.7,16.41-9.39,26.43-3.13,25.09-4.89,25.08-30.83,0-2.02,0-4.04,0-6.06ZM597.65,312.5c-5.4-10.14-4.08-14.44,8.27-13.44,10.6.86,19.86-12.99,17.16-23.72,3.42-.38,6.74-.75,12.58-1.39-24.86-25.15-52.76-37.79-85.51-39.04-3.36-.13-9.74,6.52-10,10.35-.94,13.63-.34,27.45.78,41.1.37,4.46,3.48,11.66,6.46,12.29,5.27,1.12,11.43-1.72,17.16-3.16,1.98-.5,3.77-1.77,6.26-2.98-1.76,15.48,9.95,24.54,26.84,20.01ZM531.6,520.22c.06-1.61.12-3.22.18-4.83-1.51-1.11-3.05-2.17-4.52-3.32-3.21-2.54-6.38-5.13-9.57-7.7,3.18-2.8,6.76-5.27,9.4-8.52,2.25-2.77,4.46-6.32,4.78-9.71.45-4.71-1.81-9.71-1.26-14.38.98-8.3-3.01-11.16-10.1-13.7-10.93-3.92-21.15-9.8-32.08-13.73-3.93-1.41-10.56-1.31-13.32,1.11-11.22,9.84-21.24,21.02-32.05,31.34-6.52,6.22-4.88,10.34,1.5,15.52,18.63,15.12,39.78,24.85,63.09,29.3,7.61,1.45,15.94-.82,23.93-1.4ZM240.26,400.31c4.27,20.08,8.56,40.15,12.79,60.24,1.65,7.85,6.37,13.68,14.18,10.29,6.55-2.84,16.28-9.52,16.23-14.44-.16-18.72,8.36-31.72,19.8-45.08,3.98-4.65,2.85-15.03,1.47-22.3-.64-3.35-7.3-7.37-11.59-7.86-10.77-1.23-21.76-.9-32.65-.67-16.39.33-18.7,2.97-20.23,19.82ZM538.68,639.49c-.1,0-.21,0-.31.01.37,7.65.65,15.31,1.12,22.96.56,9.3,5.97,12.77,14.7,11.5,15.17-2.2,30.36-4.3,45.4-7.2,3.74-.72,6.92-4.35,10.35-6.64-2.43-3.01-4.3-6.94-7.41-8.84-8.38-5.14-13.78-10.95-10.48-21.7.72-2.36-.19-5.63-1.28-8.06-6.36-14.07-20.01-17.97-42.2-13.04-14.03,3.12-8.61,14.17-9.82,22.52-.4,2.77-.06,5.64-.06,8.47ZM393.62,404.52c4.12,27.12,14.45,49.05,31.09,67.89,1.91,2.17,8.5,3.59,10.01,2.19,13.02-12.02,25.99-24.24,37.34-37.78,1.96-2.34-3.82-11.17-6.02-17.01-3.28,2.44-7.22,4.37-9.67,7.47-2.75,3.49-4.16,8.04-7.33,14.54-2.03-7.21-3.19-11.34-4.35-15.47-9.04-2.76-15.9-8.24-23.6-11.98-8.13-3.94-17.07-6.22-27.46-9.86ZM739.76,592.21c-6.37-5.78-10.8-9-14.2-13.07-7.66-9.15-14.28-19.23-22.53-27.78-2.34-2.43-11-2.81-12.87-.69-2.92,3.29-4.22,10.01-3.01,14.38,1.1,3.98,6.13,7.27,10.02,10.02,9.01,6.35,10.18,12.6,1.71,20.5-2.98,2.78-6.21,7.01-6.35,10.7-.23,5.84,2.03,11.77,3.91,20.94,15-12.12,29.17-23.57,43.31-35ZM598.76,495.33c-1.81-10.54,5.5-11.8,11.3-14.78,2.88-1.48,4.94-4.58,7.37-6.94-3.1-2.07-6.33-6-9.26-5.79-5.09.36-12.74,1.95-14.43,5.41-4.19,8.59-5.63,18.53-8.41,28.8-1.88-1.76-4.92-5.15-8.5-7.79-3.09-2.28-6.82-3.71-10.26-5.51-4.35,8.37-14.18,3.89-19.77,8.41-2.9,2.34-5.11,7.26-4.98,10.92.07,2,5.56,4.08,8.84,5.6,3.74,1.73,7.72,2.98,11.66,4.23,2.94.93,6.52,2.97,8.88,2.07,13.88-5.31,27.68-10.93,41.01-17.46,2.8-1.37,3.52-6.98,5.19-10.63-3.82,0-7.69-.33-11.46.14-2.14.27-4.12,1.84-7.19,3.32ZM407.83,308.04c.83,1.6,1.65,3.19,2.48,4.79,12.76-12.36,22.35-5.38,33.14,1.61,5.88,3.81,14.34,3.62,21.64,5.23.73-1.52,1.46-3.03,2.19-4.55-10.74-10.63-21.3-21.45-32.4-31.68-1.58-1.45-7.22-1.3-8.51.21-6.62,7.75-12.44,16.19-18.54,24.38ZM641.68,297.03c-.76,4.57-2.01,8.03-1.69,11.32.29,2.95,1.63,6.81,3.82,8.22,1.61,1.03,5.53-.89,8.1-2.14,10.14-4.92,8.82-12.09,3.4-19.73-7.03-9.9-16.85-12.21-24.47-4.9-2.82,2.7-3.3,7.85-4.85,11.89,3.42-.96,6.84-1.91,10.26-2.89,1.41-.41,2.79-.9,5.43-1.75ZM621.78,506.09c9.17,18,41.83,26.29,51.83,14.44-17.94-5-34.89-9.72-51.83-14.44ZM372.84,381.19c5.8-8.07,11.02-12.23,11.8-17.1,1.38-8.66-5.97-10.33-12.89-10.35-7.55-.02-13.54,3.96-12.19,11.53.82,4.63,6.69,8.36,13.28,15.92ZM639.32,463.16c.71-2.01,1.42-4.01,2.14-6.02-7.14-4.1-14.28-8.2-21.42-12.3-1,.69-2.01,1.39-3.01,2.08,1.1,3.67,1.13,9.36,3.51,10.61,5.68,2.99,12.46,3.88,18.79,5.62ZM566.3,600.15c.19-1.51.39-3.02.58-4.52-5.85-1.89-11.6-4.35-17.6-5.39-2.21-.39-5,2.55-7.53,3.97,2.07,2.36,3.94,6.49,6.23,6.73,6.01.64,12.19-.41,18.31-.78ZM568.37,459.01c-20.57-3.58-28.69,1.74-25.69,13.54,7.81-4.12,15.62-8.23,25.69-13.54ZM321.59,566.39c-2.35,3.43-4.89,6.11-4.48,6.7,2.37,3.34,5.45,6.18,8.28,9.19,1.63-1.86,4.99-4.68,4.58-5.4-1.92-3.43-4.86-6.29-8.39-10.48Z"/>
      <g>
        <path class="cls-1" d="M850.56,836.44c-23,21.7-49.02,36.58-80.77,39.44-40.46,3.65-76.77-7.88-110.14-30.17-16.15-10.79-31.95-22.16-48.59-32.12-15.92-9.53-33.27-13.46-52.7-5.42,4.59,2.62,8.99,5.68,13.8,7.79,37.6,16.51,68.36,42.9,99.71,68.5,7.16,5.84,5.26,10.77-.9,15.65-5.84,4.62-9.78,10.6-18.81,1.81-32.69-31.82-64.34-65.11-106.17-85.87-7.49-3.72-13.44-4.36-20.09.48-23.14,16.85-46.88,32.93-69.26,50.72-13.84,11-25.39,24.85-38.47,36.88-9.12,8.39-13.27-2.69-18.76-6.33-7.04-4.66-3.29-9.67,1.51-13.67,31.42-26.17,62.8-52.42,100.88-68.84,4.08-1.76,8.07-3.73,12.04-5.73.58-.29.81-1.27,3.29-5.45-11.57,0-22-2.46-30.51.53-15.79,5.56-31.42,12.83-45.39,22.02-29.47,19.39-57.89,40.38-93.62,47.09-46.76,8.79-88.15-2.9-124.58-33.07-.83-.69-1.19-1.94-3.12-5.24,6.73,2.1,11.49,3.6,16.26,5.07,34.61,10.62,68.39,8.44,102.09-4.85,34.59-13.65,69.22-27.55,104.74-38.32,26.16-7.93,53.66-5.63,80.51.69,6.15,1.45,13.2,2.92,19,1.34,47.24-12.93,92.22-5,136.31,13.23,16.08,6.65,32.4,12.78,48.22,19.99,38.32,17.48,77.14,19.7,116.84,5.36,2.13-.77,4.44-1.03,6.67-1.52Z"/>
        <path class="cls-1" d="M1030.61,622.66c-.6,2.15-.95,4.42-1.85,6.44-21.74,48.57-57.57,83.58-104.67,107.21-9.62,4.82-20.58,7.4-31.21,9.69-27.57,5.95-55.31,11.17-83.84,15.77,30.13-30.25,38.47-70.48,53.57-107.8,11.26-27.83,28.62-53.2,43.38-79.6.86-1.54,2.72-2.52,6.4-2.74-1.17,5.31-2.49,10.6-3.47,15.95-2.55,13.94-5.6,27.82-7.29,41.87-4.99,41.45-21.74,76.78-52.79,105.04-1.42,1.29-2.45,3-2.28,6.67,3.87-2.26,8.1-4.07,11.57-6.84,32.18-25.76,68.3-44.61,105.47-61.97,25.41-11.86,47.52-28.74,67.03-49.7Z"/>
        <path class="cls-1" d="M226.95,738.78c-6.94-7.81-13.78-15.71-20.83-23.43-19.01-20.81-28.04-46-32.79-73.22-4.08-23.43-8.52-46.79-10.9-71.56,2.11,2.35,4.37,4.57,6.29,7.07,21.94,28.6,37.71,60.35,47.99,94.84,9.67,32.46,21.85,63.55,45.79,90.25-4.79-1-9.58-2-14.37-3-27.73-5.76-55.71-10.55-83.15-17.5-48.49-12.29-109.93-72.73-123.31-120.79,9.9,9.11,18.23,18.13,27.9,25.34,12.6,9.4,25.51,18.95,39.61,25.65,36.67,17.42,72.56,35.85,104.37,61.44,3.61,2.9,7.94,4.9,11.94,7.32.49-.8.97-1.61,1.46-2.41Z"/>
        <path class="cls-1" d="M676.31,793.38c20.22-10.07,41.55-18.29,60.11-30.66,16.29-10.86,29.39-26.47,44.06-39.8,14.96-13.6,30.09-27.02,45.22-40.44,1.7-1.51,3.86-2.51,6.56-2.92-20.6,48.12-40.27,96.92-102.37,106.92.74,1.27,1.48,2.55,2.22,3.82,3.65,0,7.34.35,10.94-.05,38.54-4.37,77.01-9.57,115.62-13.09,30.35-2.77,59.04-9.21,83.93-28.08.75.86,1.51,1.71,2.26,2.57-9.06,9.22-17.34,19.42-27.33,27.49-42.41,34.23-90.69,47.26-144.4,36.37-32.86-6.66-65.4-14.89-96.82-22.12Z"/>
        <path class="cls-1" d="M130.56,753.22c40.87,26.46,87.39,23.18,132.12,28.14,20.88,2.31,41.67,5.4,62.5,8.06,4.91.62,9.86.9,16.21-.75-60.85-12.02-80.48-61.03-102.21-108.11.79-.87,1.59-1.74,2.38-2.61,14.05,12.31,28.31,24.38,42.09,36.98,15.83,14.47,29.81,31.44,47.21,43.58,20.16,14.07,43.17,24.06,66.4,36.62-43.43,7.98-87.07,19.16-131.36,23.26-45.12,4.17-84.4-15.31-118-45.33-5.42-4.84-10.22-10.38-15.17-15.72-1.02-1.1-1.46-2.73-2.17-4.12Z"/>
        <path class="cls-1" d="M911.86,677.07c21.53-42.94,19.56-89.06,25.26-133.68,3.52-27.56,7.7-55.03,11.58-82.54,1.6-.02,3.21-.04,4.81-.07.81,5.16,1.7,10.31,2.39,15.49.7,5.21.99,10.48,1.81,15.66,2.73,17.17,6.69,34.21,8.22,51.48,2.7,30.49-3.32,59.51-17.89,87.68,2.23-1.63,5.27-2.77,6.58-4.95,24.8-41.4,61.25-72.94,91.9-109.38,9.77-11.61,16.94-25.41,27.33-38.32-2.94,16.23-4.85,32.73-9.03,48.64-9.24,35.15-31.64,62.17-59.27,83.89-30.01,23.59-62.36,44.19-93.69,66.09Z"/>
        <path class="cls-1" d="M127.55,630.09c-37.37-55.08-16.14-112.12-8.36-168.71,1.06-.22,2.12-.45,3.18-.67,3.46,18.95,7.69,37.8,10.23,56.87,5.01,37.65,8.2,75.56,14,113.07,2.36,15.24,9.56,29.74,15.93,48.62-36.27-26.4-71.16-50.04-104.02-76.23-29.28-23.33-48.09-54.42-54.91-91.83-1.99-10.92-2.95-22.03-3.03-33.61,18.07,43.26,56.53,69.36,84.54,103.99,9.14,11.3,17.01,23.61,25.63,35.33,3.73,5.08,7.9,9.83,11.87,14.73l4.95-1.56Z"/>
        <path class="cls-1" d="M6.27,323.21c21.03,60.76,42.06,121.52,63.09,182.29l.85.24c-.4-3.2-.73-6.4-1.2-9.58-4.38-29.48-2.82-58.35,11.1-85.26,13.3-25.71,27.62-50.88,43.81-76.14-4.13,25.65-7.28,51.5-12.7,76.87-4.56,21.32-11.06,42.32-18.01,63.02-6.94,20.66-10.51,41.5-9.11,63.24.17,2.59-.56,5.24-.86,7.81C37.4,497.98.3,446.29,0,377.05c-.08-18.23,2.92-36.47,4.51-54.7.59.29,1.17.57,1.76.86Z"/>
        <path class="cls-1" d="M1003.75,508.29c10.48-33.27,19.34-64.62,30.28-95.22,10.96-30.67,28.43-59.13,30.53-92.88,9.86,27.87,8.8,55.92,5.13,84.71-5.98,46.92-29.77,83.91-60.37,117.89-6.68,7.41-12.15,15.91-18.58,24.45-1.08-1.74-2.26-2.74-2.18-3.62,3.71-36.71-11.19-69.76-19.66-104.18-7.22-29.35-11.65-59.4-17.13-89.17-.63-3.43-.09-7.08-.09-12.72,13.42,23.64,26.01,45.08,37.87,66.92,16.33,30.07,19.31,62.16,12.94,95.42-.23,1.19-.49,2.4-.48,3.6,0,.74.49,1.47,1.73,4.82Z"/>
        <path class="cls-1" d="M63.06,357.17c4.42-57.83,48.64-86.46,86.5-123.82-6.41,33.45-21.43,59.32-38.43,84.53-14.89,22.07-28.73,44.85-42.74,67.49-3.06,4.95-4.89,10.67-7.29,16.04-1.34.12-2.68.23-4.01.35-10.95-39.43-24.89-78.34-31.98-118.46-6.61-37.44,7.42-72.23,29.67-104.93,0,17.54-.62,33.33.19,49.04.71,13.69,4.18,27.28,4.4,40.94.41,24.53-.72,49.09-1.17,73.63-.08,4.45-.01,8.91-.01,13.36,1.62.61,3.24,1.22,4.86,1.82Z"/>
        <path class="cls-1" d="M1014.02,399.42c-24.26-37.94-49.1-75.2-72.1-113.57-8.92-14.89-13.67-32.27-18.57-49.32,37.45,34.71,82.83,63.17,85.81,122.39,1.18-.65,2.35-1.3,3.53-1.95,0-29.36-1.31-58.79.37-88.05,1.7-29.61,10.52-58.86,2.49-88.93,1.3-.42,2.61-.83,3.91-1.25,6.56,13.51,14.12,26.63,19.47,40.61,11.3,29.53,13.5,60.22,4.59,90.62-8.95,30.55-19.87,60.52-29.5,89.45Z"/>
        <path class="cls-1" d="M196.53,136.68c-4.76,21.22-16.18,41.07-32.51,57.73-12.98,13.24-27.62,24.83-41.31,37.39-14.79,13.56-29.34,27.39-44.56,41.63-.74-10.16-1.67-21.09-2.31-32.03-1.6-27.46-3.44-54.93,4.19-81.95,8.3-29.4,28.6-48.44,53.9-63.5-29.05,43.13-24.33,96.65-47.99,141.18,1.31.58,2.61,1.17,3.92,1.75,1.42-1.49,3.29-2.74,4.19-4.49,12.52-24.36,31.35-42.64,53.48-58.41,17.23-12.28,33.12-26.45,49-39.29Z"/>
        <path class="cls-1" d="M875.96,137.34c18.79,14.8,38.27,30.89,58.56,45.89,17.29,12.78,30.77,28.49,41.44,46.92,1.77,3.05,3.72,5.99,6.06,9.72,2.13-10.42-33.29-124.56-45.27-145.88,31.01,18.65,53.06,41.56,57.74,75.86,3.15,23.05,2.01,46.74,2.11,70.14.05,11.22-1.48,22.45-2.49,36.35-5.77-6.97-9.63-12.94-14.73-17.55-15.88-14.37-32.21-28.23-48.39-42.27-25.73-22.32-47.69-47.16-55.03-79.17Z"/>
        <path class="cls-1" d="M242.02,42.65c-38.86,41.44-61.8,96.02-113.21,124.25.53-51.64,56.18-113.56,113.21-124.25Z"/>
        <path class="cls-1" d="M944.04,167.29c-51.3-28.61-74.88-82.74-113.05-123.99,52.01,5.3,106.97,65.89,113.05,123.99Z"/>
      </g>
    </g>
  </g>
</svg>