<?xml version="1.0" encoding="UTF-8"?>
<svg id="Camada_2" data-name="Camada 2" xmlns="http://www.w3.org/2000/svg" viewBox="0 0 876.43 763.26">
  <defs>
    <style>
      .cls-1 {
        fill: #ffe7d2;
      }
    </style>
  </defs>
  <g id="Camada_1-2" data-name="Camada 1">
    <g id="guVwvX.tif">
      <g>
        <path class="cls-1" d="M831.9,0c22.25,5.76,37.24,19.03,44.53,40.96v23.15l-56.87,154.08c17.64,29.6,36.77,60.29,47.01,93.5,22.5,72.98-.09,152.31-60.57,199.29-40.88,31.75-90.09,43.95-141.53,37.49,64.76,83.9-30.51,184.51-111.83,207.82-11.59,3.32-36.36,10.6-46.55,4.8-18.55-10.55-5.21-30.06-2.42-44.85,5.52-29.24-2.57-41.19-4.83-67.21-3.09-35.63,3-74.58,26.69-102.34-45.08,9.96-90.03,32.71-124.71,63.17-56.44,49.58-65.78,106.61-149.6,130.01-140.84,39.31-220.23-65.57-243.17-189.59C-63.65,162.63,358.54-122.46,691.03,91.86c15.25,9.83,29.09,22.29,44.65,31.01l45.93-99.23c9.35-13.55,20.78-18.79,36.03-23.63h14.25ZM833.18,45.01c-5.29-5.28-14.11-4.3-19.19.77l-186.82,405.73c-5.39,35.84,43.47,49,57.74,16.77,50.42-138.48,103.15-276.53,151.98-415.34-1.17-2.24-2.06-6.29-3.71-7.93ZM602.12,500.35c-14.1-20.23-18.56-43.03-10.76-66.83,37.12-84.24,79.07-166.47,116.16-250.69,1.64-3.72,8.96-18.96,8.36-21.31-138.35-125.43-352.73-136.62-505.13-28.37C61.4,239.25-.88,440.76,66.42,612.99c29.78,76.21,106.92,114.85,185.73,85.07,51.36-19.41,60.14-50.33,92.56-87.32,63.94-72.98,159.72-115.36,257.41-110.39ZM701.87,511.04c82.3-5.07,145.38-80.53,133.38-162.7-4.35-29.82-20.24-55.85-31.87-83.01-2.44.19-2.83,2.6-3.63,4.36-29.97,66.13-47.56,144.47-77.45,211.04-5.37,11.96-11.17,21.02-20.43,30.31ZM543.35,717.61c42.91-11.28,84.79-47.65,100.05-89.61,25.04-68.82-72.38-103.84-98.6-38.03-17.99,45.14,6.69,82.53-1.45,127.63Z"/>
        <path class="cls-1" d="M362.94,249.91c0,47.58-38.58,86.15-86.18,86.15s-86.18-38.57-86.18-86.15,38.58-86.15,86.18-86.15,86.18,38.57,86.18,86.15ZM323.53,249.86c0-25.85-20.96-46.8-46.81-46.8s-46.81,20.95-46.81,46.8,20.96,46.8,46.81,46.8,46.81-20.95,46.81-46.8Z"/>
        <path class="cls-1" d="M609.85,202.37c0,47.56-38.57,86.11-86.14,86.11s-86.14-38.55-86.14-86.11,38.57-86.11,86.14-86.11,86.14,38.55,86.14,86.11ZM570.5,202.43c0-25.81-20.93-46.74-46.75-46.74s-46.75,20.92-46.75,46.74,20.93,46.74,46.75,46.74,46.75-20.92,46.75-46.74Z"/>
        <path class="cls-1" d="M267.85,468.32c0,47.54-38.55,86.07-86.1,86.07s-86.1-38.53-86.1-86.07,38.55-86.07,86.1-86.07,86.1,38.53,86.1,86.07ZM228.45,468.31c0-25.79-20.91-46.69-46.7-46.69s-46.7,20.9-46.7,46.69,20.91,46.69,46.7,46.69,46.7-20.9,46.7-46.69Z"/>
      </g>
    </g>
  </g>
</svg>