<?xml version="1.0" encoding="UTF-8"?>
<svg id="Camada_2" data-name="Camada 2" xmlns="http://www.w3.org/2000/svg" viewBox="0 0 3298.72 1497.17">
  <defs>
    <style>
      .cls-1 {
        fill: #ffe7d3;
      }
    </style>
  </defs>
  <g id="Camada_1-2" data-name="Camada 1">
    <path id="Caminho_7807" data-name="Caminho 7807" class="cls-1" d="M433.02,749.53l.47-1.17-.47-1.18v2.35Z"/>
    <path id="Caminho_7808" data-name="Caminho 7808" class="cls-1" d="M676.95,702.32l-117.38,46.06,117.36,46.12,785.47.18v-92.2l-785.46-.15Z"/>
    <path id="Caminho_7809" data-name="Caminho 7809" class="cls-1" d="M676.92,794.45h-128.43l86.49,82.57,712.6,280,33.72-85.78-704.39-276.79Z"/>
    <path id="Caminho_7810" data-name="Caminho 7810" class="cls-1" d="M634.99,877.06l-118.27-46.47,40.64,99.72,507.66,484.79,63.65-66.66-493.68-471.37Z"/>
    <path id="Caminho_7811" data-name="Caminho 7811" class="cls-1" d="M458.89,935.28l228.71,561.88,85.32-34.76-216.52-532.1-87.99-83.95-9.52,88.93Z"/>
    <path id="Caminho_7812" data-name="Caminho 7812" class="cls-1" d="M371.8,880.03l-52.93,494.05,91.65,9.81,48.36-451.39-41.57-102.11-45.51,49.64Z"/>
    <path id="Caminho_7813" data-name="Caminho 7813" class="cls-1" d="M433.02,748.3l.47.07-.47-.44v.37Z"/>
    <path id="Caminho_7814" data-name="Caminho 7814" class="cls-1" d="M328.62,794.51l-264.61,288.55,67.94,62.3,240.83-262.54,9.47-88.32h-53.63Z"/>
    <path id="Caminho_7815" data-name="Caminho 7815" class="cls-1" d="M0,700.66v92.2l328.63-.18,42.29-46.12-42.28-46.09-328.65.18Z"/>
    <path id="Caminho_7816" data-name="Caminho 7816" class="cls-1" d="M433.02,748.4v.4l.47-.44-.47.04Z"/>
    <path id="Caminho_7817" data-name="Caminho 7817" class="cls-1" d="M372.74,614.05l-240.81-262.25-67.9,62.42,264.61,288.09h53.55l-9.45-88.27Z"/>
    <path id="Caminho_7818" data-name="Caminho 7818" class="cls-1" d="M458.89,556.94l-48.36-451.1-91.65,9.81,52.94,493.8,45.5,49.54,41.57-102.06Z"/>
    <path id="Caminho_7819" data-name="Caminho 7819" class="cls-1" d="M687.61,0l-228.72,561.48,9.52,88.9,87.99-83.95L772.98,34.78,687.61,0Z"/>
    <path id="Caminho_7820" data-name="Caminho 7820" class="cls-1" d="M635,619.77l493.62-471.14-63.63-66.61-507.63,484.45-40.63,99.72,118.27-46.42Z"/>
    <path id="Caminho_7821" data-name="Caminho 7821" class="cls-1" d="M1347.62,340.06l-712.6,279.67-86.49,82.57h128.43l704.36-276.43-33.69-85.81Z"/>
    <path id="Caminho_7822" data-name="Caminho 7822" class="cls-1" d="M1673.97,601.61v-198.39h54.52v150.91h90.04v47.48h-144.57Z"/>
    <g id="Grupo_434" data-name="Grupo 434">
      <g id="Grupo_433" data-name="Grupo 433">
        <path id="Caminho_7823" data-name="Caminho 7823" class="cls-1" d="M1906.2,604.34c-9.54.08-19.04-1.25-28.2-3.95-8.05-2.34-15.65-6.01-22.5-10.84-6.25-4.53-11.76-10.01-16.31-16.25-4.51-6.15-7.94-13.03-10.16-20.33-2.25-7.41-3.38-15.11-3.34-22.86-.08-10.28,1.7-20.49,5.24-30.14,3.39-9.2,8.57-17.64,15.22-24.84,7.11-7.5,15.81-13.33,25.46-17.05,11.02-4.31,22.77-6.44,34.6-6.28,11.84-.16,23.6,1.94,34.65,6.21,9.6,3.63,18.27,9.37,25.36,16.79,6.55,7.03,11.68,15.26,15.14,24.22,3.57,9.27,5.37,19.12,5.3,29.05,0,5.45-.51,10.88-1.49,16.24h-103.02c.12,6.49,3.15,12.58,8.26,16.58,5.05,3.72,11.19,5.65,17.46,5.5,5.76.02,11.44-1.4,16.51-4.13,4.6-2.2,8.2-6.04,10.09-10.78l44.88,12.96c-6.35,12.28-16.19,22.39-28.29,29.07-13.73,7.47-29.19,11.18-44.81,10.78M1881.01,512.48h48.7c-.47-6.34-3.2-12.3-7.71-16.79-9.57-8.18-23.67-8.18-33.23,0-4.55,4.46-7.31,10.43-7.76,16.79"/>
        <path id="Caminho_7824" data-name="Caminho 7824" class="cls-1" d="M2003.88,397.72h53.08v44.74h-53.08v-44.74ZM2003.88,454.73h53.08v146.88h-53.08v-146.88Z"/>
        <path id="Caminho_7825" data-name="Caminho 7825" class="cls-1" d="M2150.16,601.61v-198.39h91.14c9.24-.03,18.37,2.02,26.71,5.99,8.1,3.72,15.34,9.07,21.29,15.7,5.78,6.5,10.39,13.95,13.65,22.02,3.31,7.93,5.03,16.43,5.06,25.02.06,11.18-2.54,22.22-7.58,32.2-4.84,9.76-12.04,18.15-20.95,24.43l41.88,72.94h-59.74l-34.96-60.86h-22.02v60.86l-54.5.1ZM2204.58,493.14h34.4c3.98-.21,7.59-2.38,9.63-5.79,2.98-4.53,4.45-9.9,4.2-15.32.27-5.54-1.43-11-4.79-15.41-2.35-3.46-6.17-5.63-10.35-5.86h-33.03l-.07,42.39Z"/>
        <path id="Caminho_7826" data-name="Caminho 7826" class="cls-1" d="M2326.97,528.07c-.06-9.93,1.74-19.79,5.31-29.05,3.46-8.96,8.6-17.19,15.14-24.22,7.09-7.43,15.77-13.16,25.38-16.79,22.36-8.28,46.94-8.28,69.29,0,9.62,3.63,18.3,9.36,25.42,16.78,6.53,7.04,11.67,15.26,15.14,24.22,7.1,18.67,7.1,39.3,0,57.98-3.48,8.97-8.61,17.2-15.14,24.28-7.09,7.46-15.78,13.22-25.4,16.86-22.36,8.28-46.94,8.28-69.29,0-9.62-3.63-18.3-9.4-25.38-16.86-6.54-7.06-11.67-15.3-15.14-24.28-3.56-9.22-5.36-19.02-5.31-28.9M2388.72,551.15c8.95,10.35,24.59,11.48,34.94,2.53.9-.78,1.75-1.63,2.53-2.53,9.63-13.84,9.63-32.22,0-46.06-9.06-10.36-24.8-11.42-35.17-2.36-.84.73-1.63,1.52-2.36,2.36-9.67,13.83-9.67,32.23,0,46.06"/>
        <path id="Caminho_7827" data-name="Caminho 7827" class="cls-1" d="M2505.16,551.27v-96.61h53.08v84.59c-.31,5.34,1.2,10.63,4.28,15.01,2.87,3.66,7.33,5.71,11.97,5.5,10.52-.28,20.13-6.01,25.36-15.14v-89.98h53.05v88.3c-.32,3.64.45,7.28,2.2,10.49,1.99,2.27,4.9,3.52,7.91,3.41v44.75c-7.36,1.63-14.86,2.55-22.39,2.75-18.08,0-28.49-6.78-31.23-20.33l-1.1-5.33c-13.67,17.51-35.12,27.12-57.29,25.65-12.83.82-25.34-4.19-34.06-13.64-8.57-11.29-12.75-25.29-11.79-39.43"/>
        <path id="Caminho_7828" data-name="Caminho 7828" class="cls-1" d="M2676.68,557.12c-.23-14.23,6.43-27.7,17.89-36.15,13.15-9.78,29.26-14.74,45.63-14.05,10.16-.38,20.28,1.53,29.6,5.6v-4.5c.46-5.8-1.79-11.5-6.08-15.43-5.66-3.82-12.46-5.6-19.27-5.04-7.68-.04-15.3,1.27-22.53,3.88-8.12,3.12-15.84,7.18-23.02,12.08l-15.44-33.03c19.75-12.58,42.77-19.08,66.18-18.7,19.42-1.28,38.66,4.38,54.29,15.96,13.15,11.82,20.15,29.02,18.98,46.67v28.51c-.31,3.64.44,7.29,2.17,10.5,2,2.26,4.9,3.51,7.91,3.41v44.75c-7.33,1.72-14.83,2.65-22.36,2.75-18.13,0-28.55-6.78-31.27-20.33l-1.21-5.33c-11.5,16.15-30.12,25.71-49.94,25.65-13.53.45-26.71-4.37-36.76-13.43-9.61-8.56-14.98-20.91-14.68-33.79M2762.88,560.84c3.99-1.99,6.64-5.93,6.96-10.38v-10.91c-6.55-2.43-13.47-3.72-20.45-3.81-5.72-.2-11.36,1.47-16.05,4.76-4.04,2.66-6.48,7.17-6.48,12.01-.04,3.89,1.75,7.58,4.83,9.95,3.53,2.75,7.92,4.15,12.39,3.96,6.69.09,13.26-1.86,18.81-5.59"/>
        <path id="Caminho_7829" data-name="Caminho 7829" class="cls-1" d="M2999.9,601.61h-53.08v-82.68c.41-5.56-1.25-11.07-4.65-15.48-2.87-3.41-7.13-5.34-11.59-5.26-5.37.29-10.47,2.4-14.46,6-4.94,3.94-8.73,9.12-11.01,15.01v82.41h-53.08v-146.95h47.89v21.69c5.36-8.14,13.03-14.5,22.02-18.28,10.54-4.39,21.89-6.52,33.3-6.28,5.8-.08,11.58.75,17.12,2.46,4.56,1.35,8.76,3.7,12.29,6.88,3.02,2.84,5.67,6.05,7.9,9.55,2.21,3.59,3.83,7.5,4.79,11.6.96,3.84,1.66,7.74,2.09,11.67.38,3.63.57,7.27.56,10.91l-.1,96.73Z"/>
        <path id="Caminho_7830" data-name="Caminho 7830" class="cls-1" d="M3097.8,604.34c-9.53.08-19.03-1.25-28.17-3.95-8.06-2.35-15.67-6.01-22.53-10.84-6.25-4.53-11.74-10.01-16.28-16.25-4.53-6.14-7.97-13.02-10.16-20.33-2.26-7.41-3.4-15.11-3.37-22.86-.08-10.28,1.7-20.49,5.27-30.14,3.39-9.2,8.57-17.64,15.22-24.84,7.1-7.5,15.78-13.33,25.42-17.05,11.02-4.31,22.77-6.44,34.6-6.28,11.84-.17,23.61,1.94,34.65,6.21,9.61,3.63,18.29,9.37,25.39,16.79,6.54,7.04,11.67,15.26,15.14,24.22,3.58,9.26,5.39,19.12,5.33,29.05-.02,5.45-.52,10.88-1.51,16.24h-102.99c.1,6.47,3.1,12.56,8.17,16.58,5.05,3.71,11.19,5.65,17.46,5.5,5.76.03,11.44-1.39,16.51-4.13,4.61-2.19,8.22-6.04,10.11-10.78l44.88,12.96c-6.37,12.26-16.21,22.37-28.29,29.07-13.74,7.47-29.2,11.18-44.84,10.78M3072.57,512.48h48.7c-.46-6.34-3.2-12.31-7.71-16.79-4.47-4.15-10.41-6.36-16.51-6.14-6.15-.22-12.13,1.98-16.67,6.14-4.54,4.47-7.3,10.44-7.76,16.79"/>
        <path id="Caminho_7831" data-name="Caminho 7831" class="cls-1" d="M3298.72,593.56c-15.35,7.02-31.97,10.83-48.84,11.17-5.79.07-11.56-.7-17.12-2.3-5.04-1.51-9.77-3.94-13.93-7.17-4.33-3.51-7.65-8.1-9.63-13.31-2.47-6.39-3.66-13.2-3.5-20.05v-67.25h-18.14v-39.99h18.14v-46.1h53.09v46.1h28.79v39.99h-28.79v48.57c0,8.74,3.81,13.09,11.45,13.09,6.52-.43,12.91-2.04,18.84-4.78l9.63,42.03Z"/>
        <path id="Caminho_7832" data-name="Caminho 7832" class="cls-1" d="M1685.9,838.83v-129.71h86.44v18.11h-66.06v38.71h55.24v16.95h-55.21v55.93h-20.41Z"/>
        <path id="Caminho_7833" data-name="Caminho 7833" class="cls-1" d="M1787.39,801.73v-58.43h20.08v54.41c-.47,6.74,1.15,13.47,4.62,19.27,3.14,4.36,8.29,6.82,13.65,6.51,5.89-.02,11.63-1.9,16.38-5.39,5.27-3.83,9.35-9.08,11.74-15.14v-59.59h20.16v72.94c-.16,1.76.27,3.52,1.24,5,1.08,1.1,2.59,1.68,4.13,1.6v16.06c-2.94.54-5.93.84-8.92.89-3.34.11-6.62-.95-9.28-2.99-2.44-1.88-3.95-4.73-4.13-7.8l-.34-9.45c-3.99,6.63-9.7,12.05-16.51,15.7-6.93,3.68-14.68,5.57-22.53,5.5-8.68.55-17.1-3.13-22.6-9.87-5.72-8.55-8.44-18.76-7.72-29.02"/>
        <path id="Caminho_7834" data-name="Caminho 7834" class="cls-1" d="M1984.46,838.83h-20.09v-53.53c.5-6.78-.97-13.56-4.24-19.53-2.84-4.17-7.67-6.54-12.7-6.25-6.27.17-12.29,2.45-17.11,6.47-5.36,4.05-9.36,9.64-11.45,16.02v56.82h-20.08v-95.54h18.3v19.12c3.75-6.5,9.29-11.79,15.95-15.25,7.05-3.77,14.93-5.7,22.93-5.61,4.01-.09,8.01.61,11.75,2.05,3.13,1.2,5.95,3.08,8.26,5.5,2.22,2.53,3.96,5.45,5.13,8.61,1.31,3.43,2.24,6.99,2.75,10.62.52,4.04.77,8.11.74,12.18l-.15,58.31Z"/>
        <path id="Caminho_7835" data-name="Caminho 7835" class="cls-1" d="M2001.09,791.1c-.08-8.59,1.81-17.09,5.5-24.84,3.42-7.27,8.73-13.47,15.39-17.97,6.57-4.44,14.33-6.77,22.25-6.69,6.9-.04,13.68,1.87,19.54,5.5,5.81,3.54,10.66,8.46,14.11,14.33v-55.96h20.05v110.7c-.15,1.76.29,3.52,1.27,5,1.08,1.1,2.59,1.68,4.13,1.6v16.06c-2.88.53-5.81.83-8.74.89-3.46.11-6.84-1.04-9.52-3.22-2.47-1.91-3.98-4.81-4.13-7.93l-.19-7.14c-3.53,5.92-8.58,10.79-14.63,14.09-5.96,3.36-12.7,5.11-19.54,5.09-8.29.09-16.42-2.25-23.4-6.73-6.95-4.44-12.57-10.67-16.28-18.03-3.91-7.67-5.9-16.17-5.81-24.77M2077.82,804.48v-25.06c-2.19-5.9-6.11-11-11.26-14.63-4.67-3.73-10.43-5.82-16.4-5.97-5.3-.06-10.48,1.58-14.78,4.68-4.34,3.1-7.8,7.28-10.03,12.12-2.31,4.99-3.48,10.44-3.45,15.94-.19,8.37,2.89,16.48,8.6,22.61,5.36,6.05,13.1,9.45,21.18,9.32,5.82-.14,11.44-2.09,16.1-5.57,4.87-3.11,8.44-7.87,10.05-13.42"/>
        <path id="Caminho_7836" data-name="Caminho 7836" class="cls-1" d="M2119.99,810.01c-4.69-12.17-4.66-25.66.08-37.82,2.27-5.82,5.6-11.17,9.81-15.78,4.37-4.66,9.67-8.33,15.56-10.79,6.36-2.71,13.22-4.08,20.13-4.02,9.07-.15,18.01,2.24,25.8,6.88,7.35,4.3,13.37,10.55,17.4,18.06,7.96,15.38,7.96,33.68,0,49.06-4.01,7.52-10.01,13.79-17.35,18.11-7.8,4.64-16.73,7.02-25.8,6.88-6.97.07-13.88-1.3-20.3-4.02-5.9-2.45-11.22-6.13-15.59-10.79-4.2-4.61-7.49-9.97-9.7-15.8M2145.41,814.28c9.67,11.12,26.52,12.3,37.65,2.64,1-.87,1.94-1.82,2.8-2.83,11.08-13.32,11.08-32.65,0-45.96-9.43-11.12-26.1-12.5-37.22-3.06-1.15.97-2.21,2.04-3.17,3.19-5.55,6.4-8.5,14.64-8.26,23.11-.27,8.42,2.68,16.62,8.26,22.93"/>
        <path id="Caminho_7837" data-name="Caminho 7837" class="cls-1" d="M2299.17,747.13v91.7h-20.42v-129.71h16.73l73.52,93.76v-93.58h20.64v129.53h-17.89l-72.58-91.7Z"/>
        <path id="Caminho_7838" data-name="Caminho 7838" class="cls-1" d="M2408.51,810.9c-.16-8.78,4.1-17.05,11.34-22.02,8.67-5.85,18.99-8.75,29.44-8.26,8.46-.2,16.89,1.1,24.9,3.83v-6.06c.33-5.9-1.92-11.65-6.17-15.76-4.82-4.06-11.01-6.11-17.3-5.74-5.07.01-10.09.94-14.82,2.75-5.44,2.14-10.64,4.86-15.51,8.11l-6.69-13.46c11.51-8.08,25.19-12.5,39.25-12.67,11.05-.64,21.93,3.01,30.34,10.21,7.63,7.57,11.64,18.05,11.01,28.78v35.59c-.14,1.73.28,3.46,1.2,4.94,1.04,1.17,2.57,1.79,4.13,1.65v16.06c-2.83.55-5.69.85-8.57.89-3.41.21-6.79-.84-9.48-2.95-2.25-1.86-3.71-4.51-4.06-7.4l-.54-5.5c-4.17,5.35-9.58,9.6-15.76,12.39-6.15,2.89-12.87,4.4-19.67,4.42-8.67.31-17.13-2.74-23.6-8.52-6.08-5.35-9.49-13.1-9.33-21.19M2469.47,816.79c2.71-2.23,4.43-5.43,4.82-8.92v-11.01c-7-2.68-14.44-4.04-21.94-4.02-6.27-.29-12.49,1.26-17.89,4.46-4.27,2.46-6.89,7.02-6.88,11.95-.02,4.48,1.88,8.75,5.22,11.74,3.94,3.47,9.09,5.25,14.33,4.95,4.24-.02,8.42-.91,12.3-2.6,3.74-1.51,7.14-3.76,10-6.59"/>
        <path id="Caminho_7839" data-name="Caminho 7839" class="cls-1" d="M2561.08,840.62c-9.11.13-18.07-2.25-25.91-6.88-7.4-4.32-13.46-10.61-17.52-18.15-4.07-7.58-6.16-16.06-6.08-24.66-.04-6.51,1.16-12.98,3.52-19.05,2.25-5.82,5.6-11.16,9.87-15.72,4.42-4.62,9.78-8.25,15.7-10.65,6.48-2.66,13.42-4,20.42-3.92,8.82-.22,17.52,2,25.16,6.41,6.98,4.11,12.62,10.15,16.24,17.4l-19.54,6.15c-2.19-3.9-5.4-7.13-9.28-9.36-3.96-2.27-8.45-3.43-13.01-3.39-7.78-.15-15.22,3.17-20.3,9.06-5.58,6.36-8.51,14.62-8.17,23.08-.23,8.5,2.77,16.76,8.39,23.13,5,6,12.42,9.45,20.23,9.41,4.9.01,9.71-1.3,13.93-3.8,3.89-2.02,6.97-5.3,8.74-9.3l19.8,5.79c-3.33,7.46-8.95,13.67-16.05,17.71-7.91,4.58-16.92,6.91-26.05,6.73"/>
        <path id="Caminho_7840" data-name="Caminho 7840" class="cls-1" d="M2619.1,705.46h20.08v22.12h-20.08v-22.12ZM2619.1,743.28h20.08v95.53h-20.08v-95.53Z"/>
        <path id="Caminho_7841" data-name="Caminho 7841" class="cls-1" d="M2659.85,810.01c-4.71-12.17-4.68-25.67.08-37.82,2.26-5.82,5.59-11.17,9.8-15.78,4.37-4.66,9.67-8.33,15.56-10.79,6.36-2.71,13.22-4.08,20.13-4.02,9.07-.15,18.01,2.24,25.8,6.88,7.35,4.32,13.35,10.59,17.35,18.11,7.98,15.38,7.98,33.68,0,49.06-4,7.52-10.01,13.79-17.35,18.11-7.8,4.64-16.73,7.02-25.8,6.88-6.97.07-13.87-1.3-20.28-4.02-5.91-2.45-11.23-6.13-15.61-10.79-4.17-4.62-7.44-9.98-9.63-15.8M2685.27,814.33c9.67,11.12,26.52,12.3,37.65,2.64,1-.87,1.94-1.82,2.8-2.83,11.08-13.32,11.08-32.65,0-45.96-9.43-11.12-26.1-12.5-37.22-3.06-1.15.97-2.21,2.04-3.17,3.19-5.54,6.4-8.49,14.64-8.26,23.11-.27,8.42,2.68,16.62,8.26,22.93"/>
        <path id="Caminho_7842" data-name="Caminho 7842" class="cls-1" d="M2857.41,838.83h-20.16v-53.53c.5-6.78-.97-13.56-4.24-19.53-2.84-4.17-7.65-6.54-12.69-6.25-6.27.17-12.29,2.45-17.11,6.47-5.36,4.04-9.36,9.63-11.45,16.02v56.82h-20.12v-95.54h18.29v19.12c3.76-6.5,9.3-11.79,15.96-15.25,7.05-3.77,14.93-5.7,22.93-5.61,4.01-.09,8,.61,11.74,2.05,3.13,1.2,5.95,3.08,8.26,5.5,2.22,2.53,3.96,5.45,5.13,8.61,1.31,3.43,2.24,6.99,2.75,10.62.53,4.04.78,8.11.76,12.18l-.05,58.31Z"/>
        <path id="Caminho_7843" data-name="Caminho 7843" class="cls-1" d="M2873,810.9c-.16-8.78,4.1-17.05,11.34-22.02,8.67-5.85,18.99-8.75,29.44-8.26,8.46-.2,16.89,1.1,24.9,3.83v-6.06c.33-5.9-1.92-11.65-6.17-15.76-4.82-4.06-11.01-6.11-17.3-5.74-5.07.01-10.09.94-14.82,2.75-5.44,2.14-10.64,4.86-15.51,8.11l-6.69-13.46c11.51-8.08,25.19-12.5,39.25-12.67,11.05-.64,21.93,3.01,30.34,10.21,7.63,7.57,11.64,18.05,11.01,28.78v35.59c-.14,1.73.28,3.46,1.2,4.94,1.04,1.17,2.57,1.79,4.13,1.65v16.06c-2.83.55-5.69.85-8.57.89-3.41.21-6.79-.84-9.48-2.95-2.25-1.86-3.71-4.51-4.06-7.4l-.54-5.5c-4.17,5.35-9.58,9.6-15.76,12.39-6.15,2.89-12.87,4.4-19.67,4.42-8.67.31-17.13-2.74-23.6-8.52-6.08-5.35-9.49-13.1-9.33-21.19M2933.96,816.79c2.71-2.23,4.43-5.43,4.82-8.92v-11.01c-7-2.68-14.44-4.04-21.94-4.02-6.27-.29-12.49,1.26-17.89,4.46-4.27,2.46-6.89,7.02-6.88,11.95-.02,4.48,1.88,8.75,5.22,11.74,3.94,3.47,9.09,5.25,14.33,4.95,4.24-.02,8.42-.91,12.3-2.6,3.74-1.51,7.14-3.76,10-6.59"/>
        <path id="Caminho_7844" data-name="Caminho 7844" class="cls-1" d="M2982.42,705.47h20.08v105.79c-.35,3.16.34,6.34,1.97,9.07,1.49,1.59,3.62,2.42,5.79,2.27,4.27.05,8.5-.84,12.39-2.6l2.96,15.89c-3.33,1.42-6.8,2.48-10.35,3.17-3.58.75-7.23,1.15-10.89,1.2-5.94.36-11.76-1.7-16.16-5.71-4.06-4.29-6.16-10.07-5.81-15.96v-113.11Z"/>
        <path id="Caminho_7845" data-name="Caminho 7845" class="cls-1" d="M1677.32,1010.33c-.08-8.59,1.81-17.09,5.5-24.84,3.41-7.29,8.73-13.51,15.39-18.03,6.57-4.44,14.33-6.77,22.25-6.69,6.9-.04,13.68,1.87,19.54,5.5,5.81,3.54,10.66,8.46,14.11,14.33v-55.9h20.05v110.7c-.15,1.76.29,3.52,1.27,5,1.08,1.1,2.59,1.68,4.13,1.6v16.06c-2.88.53-5.81.83-8.74.89-3.46.11-6.84-1.04-9.52-3.22-2.47-1.91-3.98-4.81-4.13-7.93l-.19-7.14c-3.53,5.92-8.58,10.79-14.63,14.09-5.97,3.36-12.7,5.11-19.54,5.09-8.29.09-16.42-2.25-23.4-6.73-6.95-4.44-12.57-10.67-16.28-18.03-3.91-7.67-5.9-16.17-5.81-24.77M1754.06,1023.7v-25.06c-2.19-5.9-6.11-11-11.26-14.63-4.67-3.73-10.43-5.82-16.4-5.97-5.3-.06-10.48,1.58-14.78,4.68-4.34,3.1-7.8,7.28-10.03,12.12-2.31,4.99-3.48,10.44-3.45,15.94-.19,8.37,2.89,16.48,8.6,22.61,5.36,6.05,13.1,9.45,21.18,9.32,5.81-.12,11.44-2.04,16.1-5.5,4.87-3.11,8.44-7.87,10.05-13.42"/>
        <path id="Caminho_7846" data-name="Caminho 7846" class="cls-1" d="M1791.93,1030.13c-.16-8.78,4.1-17.05,11.34-22.02,8.67-5.85,18.99-8.75,29.44-8.26,8.46-.2,16.89,1.09,24.9,3.83v-6.06c.34-5.9-1.91-11.65-6.17-15.76-4.83-4.03-11.02-6.06-17.3-5.66-5.06-.01-10.08.9-14.82,2.68-5.44,2.14-10.64,4.86-15.51,8.09l-6.69-13.45c11.51-8.08,25.19-12.5,39.25-12.67,11.05-.64,21.93,3.01,30.34,10.21,7.63,7.56,11.64,18.05,11.01,28.78v35.57c-.14,1.74.28,3.47,1.2,4.95,1.02,1.15,2.52,1.76,4.06,1.64v16.07c-2.83.55-5.69.85-8.57.89-3.41.21-6.79-.84-9.48-2.94-2.25-1.86-3.71-4.52-4.06-7.42l-.54-5.5c-4.17,5.35-9.58,9.6-15.76,12.39-6.15,2.89-12.87,4.4-19.67,4.42-8.67.31-17.13-2.74-23.6-8.52-6.08-5.35-9.49-13.1-9.33-21.19M1852.83,1036.02c2.7-2.24,4.43-5.43,4.82-8.92v-11.01c-7-2.68-14.44-4.04-21.94-4.02-6.27-.29-12.49,1.26-17.89,4.46-4.28,2.45-6.91,7.01-6.88,11.95-.02,4.47,1.88,8.74,5.22,11.73,3.93,3.48,9.08,5.27,14.33,4.97,4.24-.02,8.42-.91,12.3-2.6,3.74-1.51,7.14-3.76,10-6.59"/>
        <path id="Caminho_7847" data-name="Caminho 7847" class="cls-1" d="M2002.72,927.63c10.49-.22,20.84,2.45,29.92,7.72,8.31,4.85,15.05,11.98,19.4,20.56l-16.05,10.79c-1.63-3.6-3.83-6.9-6.54-9.77-2.44-2.64-5.33-4.82-8.55-6.43-2.97-1.46-6.1-2.58-9.32-3.33-3.16-.73-6.39-1.09-9.63-1.07-5-.04-9.97.9-14.62,2.75-4.29,1.68-8.23,4.14-11.61,7.27-3.25,3.12-6.04,6.7-8.26,10.62-2.3,3.99-4.03,8.28-5.13,12.76-1.1,4.43-1.66,8.99-1.67,13.56-.06,8.13,1.76,16.16,5.33,23.46,3.38,7.06,8.56,13.11,15.03,17.52,6.3,4.39,13.81,6.72,21.5,6.66,4.44,0,8.85-.7,13.07-2.09,4.51-1.55,8.69-3.95,12.3-7.06,3.96-3.29,7.09-7.46,9.14-12.18l17.04,9.63c-2.72,6.4-7.01,12.02-12.47,16.34-5.64,4.62-12.08,8.15-19.01,10.43-6.71,2.24-13.73,3.38-20.79,3.4-8.65.03-17.18-1.96-24.92-5.81-7.57-3.66-14.29-8.86-19.73-15.26-5.37-6.4-9.63-13.64-12.61-21.44-5.42-13.75-6.11-28.91-1.95-43.09,1.78-6.23,4.5-12.16,8.06-17.57,3.55-5.44,7.86-10.35,12.78-14.59,5.21-4.37,11.17-7.77,17.59-10.03,6.96-2.5,14.3-3.75,21.69-3.7"/>
        <path id="Caminho_7848" data-name="Caminho 7848" class="cls-1" d="M2068.78,1020.95v-58.43h20.08v54.41c-.46,6.74,1.16,13.46,4.62,19.27,3.14,4.36,8.3,6.82,13.67,6.51,5.89-.02,11.63-1.91,16.38-5.39,5.27-3.83,9.34-9.08,11.74-15.14v-59.59h20.15v72.94c-.16,1.76.28,3.51,1.24,5,1.08,1.1,2.59,1.68,4.13,1.6v16.06c-2.94.54-5.93.84-8.92.89-3.34.11-6.61-.95-9.26-2.99-2.44-1.88-3.94-4.73-4.13-7.8l-.34-9.45c-3.99,6.63-9.69,12.06-16.51,15.7-6.93,3.68-14.67,5.57-22.51,5.5-8.68.55-17.1-3.12-22.6-9.87-5.73-8.55-8.45-18.76-7.73-29.02"/>
        <path id="Caminho_7849" data-name="Caminho 7849" class="cls-1" d="M2180.36,924.7h20.08v105.79c-.35,3.16.35,6.34,1.97,9.07,1.48,1.59,3.6,2.42,5.77,2.26,4.27.05,8.5-.84,12.39-2.6l2.93,15.91c-3.33,1.42-6.8,2.48-10.35,3.17-3.58.75-7.23,1.15-10.89,1.18-5.93.36-11.75-1.69-16.13-5.7-4.06-4.29-6.16-10.08-5.81-15.98l.04-113.09Z"/>
        <path id="Caminho_7850" data-name="Caminho 7850" class="cls-1" d="M2287.58,1053.14c-7.75,3.93-16.28,6.09-24.96,6.33-6.05.25-11.98-1.67-16.75-5.39-4.59-4.12-7.02-10.13-6.56-16.28v-59.77h-12.63v-15.52h12.58v-31.39h20.16v31.39h20.93v15.52h-20.81v53.34c-.01,2.73,1.08,5.36,3.04,7.27,1.99,1.69,4.54,2.57,7.14,2.46,4.83-.16,9.55-1.47,13.76-3.84l4.1,15.88Z"/>
        <path id="Caminho_7851" data-name="Caminho 7851" class="cls-1" d="M2299.79,1020.95v-58.43h20.05v54.41c-.46,6.75,1.17,13.47,4.65,19.27,3.13,4.37,8.29,6.82,13.65,6.51,5.89-.02,11.62-1.91,16.38-5.39,5.26-3.83,9.33-9.08,11.71-15.14v-59.59h20.16v72.94c-.15,1.76.29,3.52,1.27,5,1.08,1.1,2.59,1.68,4.13,1.6v16.06c-2.94.54-5.93.84-8.92.89-3.35.12-6.63-.94-9.28-2.99-2.44-1.88-3.95-4.73-4.13-7.8l-.34-9.45c-4,6.61-9.71,12.04-16.51,15.7-6.94,3.68-14.68,5.57-22.53,5.5-8.68.56-17.1-3.12-22.6-9.87-5.73-8.55-8.44-18.76-7.72-29.02"/>
        <path id="Caminho_7852" data-name="Caminho 7852" class="cls-1" d="M2464.88,979.85c-7.3.05-14.47,1.94-20.84,5.5-5.76,3.19-10.27,8.23-12.78,14.31v58.45h-20.08v-95.6h18.65v21.47c3.05-6.2,7.49-11.61,12.98-15.8,4.89-3.82,10.81-6.08,17-6.5,1.69-.03,3.39.02,5.08.17v18Z"/>
        <path id="Caminho_7853" data-name="Caminho 7853" class="cls-1" d="M2471.73,1030.13c-.18-8.78,4.07-17.05,11.31-22.02,8.67-5.86,19.01-8.75,29.46-8.26,8.46-.2,16.89,1.1,24.9,3.83v-6.06c.32-5.9-1.93-11.65-6.17-15.76-4.84-4.03-11.03-6.05-17.31-5.66-5.06-.01-10.08.9-14.81,2.68-5.45,2.14-10.66,4.85-15.54,8.09l-6.69-13.45c11.52-8.08,25.21-12.5,39.28-12.67,11.03-.64,21.88,3.02,30.28,10.21,7.63,7.56,11.64,18.05,11.01,28.78v35.57c-.14,1.74.28,3.47,1.2,4.95,1.02,1.15,2.52,1.76,4.06,1.64v16.07c-2.83.56-5.69.86-8.57.89-3.41.2-6.78-.84-9.48-2.94-2.27-1.86-3.75-4.51-4.13-7.42l-.54-5.5c-4.17,5.35-9.58,9.6-15.76,12.39-6.14,2.89-12.85,4.4-19.64,4.42-8.67.31-17.13-2.74-23.6-8.52-6.08-5.35-9.49-13.1-9.33-21.19M2532.49,1036.02c2.72-2.23,4.45-5.43,4.84-8.92v-11.01c-7.03-2.68-14.49-4.05-22.02-4.02-6.27-.3-12.49,1.25-17.89,4.46-4.29,2.44-6.92,7.01-6.88,11.95-.02,4.47,1.88,8.74,5.22,11.73,3.93,3.48,9.08,5.27,14.33,4.97,4.23-.03,8.42-.91,12.3-2.6,3.73-1.51,7.12-3.76,9.98-6.59"/>
      </g>
    </g>
  </g>
</svg>