<?xml version="1.0" encoding="UTF-8"?>
<svg id="Camada_2" data-name="Camada 2" xmlns="http://www.w3.org/2000/svg" viewBox="0 0 835.39 834.85">
  <defs>
    <style>
      .cls-1 {
        fill: #ffe7d2;
      }
    </style>
  </defs>
  <g id="Camada_1-2" data-name="Camada 1">
    <g id="_53wG0e.tif" data-name="53wG0e.tif">
      <g>
        <g>
          <path class="cls-1" d="M394.35,1.04c250-22.16,330.89,315.38,112.49,411.9-8.78,3.88-35.18,10.61-39.74,14.09-9.3,7.1-25.87,39.11-35.45,50.34-7.72,9.05-15.14,11.76-24.37,2.58-10.83-10.77-29.49-47.66-38.85-53.66-4.37-2.8-15.11-3.99-20.77-6.14-95.98-36.52-152.38-121.46-144.71-225.31C210.2,96.71,296.46,9.72,394.35,1.04ZM449.04,403.1c128.45-26.87,199.17-167.32,130.35-283.64C507.38-2.24,327.64-1.49,256.46,120.52c-67.47,115.67,2.42,255.71,130.24,281.99l29.87,43.77,3.47-1.04,28.98-42.14Z"/>
          <path class="cls-1" d="M412.69,81.64c7.51-2.24,13.93.01,18.04,6.49l31.22,64.65c20.27,5.25,46.08,4.52,65.73,9.96,10.47,2.9,14.99,12.12,10.07,22.08l-50.31,52.43c.96,22.88,11.05,49.77,11.6,72.04.24,9.69-6.71,15.1-16.02,14.31-22.42-8.5-42.34-23.3-64.21-33.37l-62.35,32.89c-8.52,1.77-15.94-.76-18.64-9.27l11.22-76.61-50.31-52.43c-4.92-9.97-.41-19.17,10.06-22.08,19.49-5.41,45.59-4.4,65.73-9.96l30.51-63.69c1.34-2.18,5.34-6.76,7.67-7.46ZM419.89,130.06c-3.92-.85-2.69.53-3.74,2.16-6.2,9.59-14.82,38.16-21.52,44.04-9.33,8.18-42.12,4.65-53.74,11.83.05,2.62,33.92,30.35,36.22,37.75,3.7,11.92-8.53,53.8-5.96,57.28,11.89-4.25,36.33-24.17,47.89-23.67,11.38.49,34.47,19.59,46.28,23.67,2.57-3.48-9.66-45.37-5.96-57.28,2.3-7.4,36.17-35.14,36.22-37.75-11.36-7.08-44.8-4-53.74-11.83-7.35-6.44-16.18-36.46-21.95-46.2Z"/>
        </g>
        <path class="cls-1" d="M7.8,834.85c-1.72-3.65-5.86-4.98-6.7-9.29-3.34-17.2,2.12-45.13.31-63.54,5.62-11.17,16.15-7.5,26.57-7.92v-46.26c0-.54,6.39-6.77,7.91-7.22,5.32-1.58,13.26.38,19-.34v-187.55c0-1.01-11.96-11.57-14.15-14.44-22.83-30.02-15.11-77.18,16.97-97.12,35.4-22,84.48-8.84,100.08,30.53,2.8,7.07,3.09,16.71,6.39,22.21,2.62,4.36,24.87,23.99,30.3,28.57,130,109.75,316.08,109.93,446.57.77,5.91-4.94,28.22-24.36,31.21-29.35,6.99-11.65,3.81-23.26,16.74-38.77,56.63-67.92,157.59,13.79,107.4,82.17-2.4,3.26-14.85,14.36-14.85,15.43v187.55c8.21.34,22.09-2.71,26.03,6.77,3.05,7.34-.79,45.4.87,47.07,11,.06,19.15-2.45,26.92,6.72v74.01H7.8ZM135.03,458.08c0-21.96-17.8-39.76-39.76-39.76s-39.76,17.8-39.76,39.76,17.8,39.76,39.76,39.76,39.76-17.8,39.76-39.76ZM780.95,458.08c0-21.96-17.8-39.76-39.76-39.76s-39.76,17.8-39.76,39.76,17.8,39.76,39.76,39.76,39.76-17.8,39.76-39.76ZM680.61,486.67c-2.43-1.78-14.84,12.63-17.68,15.09-146.25,126.46-367.28,121.84-504.61-15.08l-12.53,15.96c28.4,28.95,57.75,57.63,92.59,78.92,117.52,71.82,266.64,66.99,378.86-12.79,26.62-18.93,49.71-42.23,72.72-65.29l-9.36-16.82ZM81.81,525.35v174.94h26.91v-174.94h-26.91ZM727.74,525.35v174.94h26.91v-174.94h-26.91ZM700.82,532.08c-22.8,21.9-44.01,43.69-70.12,61.93-127.17,88.8-299.1,88.41-425.91-.71-25.73-18.08-46.62-39.6-69.15-61.21v168.21c5.74.73,13.68-1.24,19,.34,1.52.45,7.91,6.69,7.91,7.22v46.26h511.36v-46.26c0-.54,6.39-6.77,7.91-7.22,5.32-1.58,13.26.38,19-.34v-168.21ZM54.9,727.2v26.91h80.74v-26.91H54.9ZM700.82,727.2v26.91h80.74v-26.91h-80.74ZM27.99,781.03v26.91h780.49v-26.91H27.99Z"/>
      </g>
    </g>
  </g>
</svg>