<?xml version="1.0" encoding="UTF-8"?>
<svg id="Camada_2" data-name="Camada 2" xmlns="http://www.w3.org/2000/svg" viewBox="0 0 450.17 450.05">
  <defs>
    <style>
      .cls-1 {
        fill: #ffe7d2;
      }
    </style>
  </defs>
  <g id="Camada_1-2" data-name="Camada 1">
    <g id="E7t9nV.tif">
      <g>
        <path class="cls-1" d="M244.06,0l36.34,6.36c78.81,19.81,142.53,82.97,162.77,161.73l6.74,37.76c-.62,12.36.83,25.49,0,37.75-5.72,84.27-66.05,161.98-144.25,191.48C139.19,497.85-29.86,353.85,4.48,179.74,23.27,84.51,108.61,6.63,206.31,0h37.75ZM80.47,367.63l78.66-24.3c64.46,33.18,143.21,16.48,185.44-42.82,57.73-81.1,12.28-195.1-84.16-215.73-122.07-26.12-217.63,100.22-153.94,208.68l-26.01,74.18Z"/>
        <path class="cls-1" d="M116.43,334.38l14.33-44.54c-52.6-70.77-9.86-171.74,76.26-186.21,104.31-17.53,183.48,98.35,119.57,186.09-37.72,51.78-109.64,63.78-163.84,30.39l-46.32,14.27ZM172.82,158.41c-5.04.91-13.89,11.58-16.11,16.25-16.36,34.44,28.07,81.2,54.52,98.61,21.15,13.93,63.93,33.28,81.75,5.29,2.7-4.24,8.72-18.21,4.07-21.9-11.61-4.69-22.67-11.34-34.56-14.97-1.43-.08-2.2.54-3.22,1.37-3.83,3.09-8.98,14.15-12.9,16.76-3.94,2.62-16.84-4.73-20.89-7.1-12.61-7.36-27.41-21.07-34.27-34.04-2.6-4.92-2.75-5.2.75-9.68,2.83-3.63,10.94-10.12,10.81-14.36-.04-1.3-.55-2.48-.91-3.69-2.9-9.73-9.72-20.87-13.51-30.53-2.88-3.06-11.55-2.74-15.53-2.02Z"/>
      </g>
    </g>
  </g>
</svg>